<?xml version="1.0" encoding="utf-8"?>
<!-- Generator: Adobe Illustrator 22.0.1, SVG Export Plug-In . SVG Version: 6.00 Build 0)  -->
<svg version="1.1" id="Layer_1" xmlns="http://www.w3.org/2000/svg" xmlns:xlink="http://www.w3.org/1999/xlink" x="0px" y="0px"
	 viewBox="0 0 1920 1080" style="enable-background:new 0 0 1920 1080;" xml:space="preserve">
<style type="text/css">
	.st0{fill:#909090;}
	.st1{fill:url(#_Path__1_);}
	.st2{fill:#F15C28;}
	.st3{fill:#F18B21;}
	.st4{fill:#F19E1F;}
	.st5{clip-path:url(#SVGID_3_);}
	.st6{clip-path:url(#SVGID_4_);}
	.st7{fill:url(#_Path__3_);}
	.st8{opacity:0.24;fill:url(#_Path_5_3_);enable-background:new    ;}
	.st9{fill:url(#_Path__4_);}
	.st10{clip-path:url(#SVGID_7_);}
	.st11{clip-path:url(#SVGID_8_);}
	.st12{fill:url(#_Path__5_);}
	.st13{opacity:0.24;fill:url(#_Path_5_4_);enable-background:new    ;}
</style>
<g>
	<rect x="-62.5" y="-31.5" class="st0" width="2096" height="608"/>
	<path class="st0" d="M2033-31v607H-62V-31H2033 M2034-32H-63v609h2097V-32L2034-32z"/>
</g>
<g>
	<g>
		<g transform="translate(0 -2.76)">
			<g id="_Group_2_12_">
				<g>
					
						<linearGradient id="_Path__1_" gradientUnits="userSpaceOnUse" x1="-488.9201" y1="-853.0713" x2="-487.3592" y2="-974.3818" gradientTransform="matrix(-1 0 0 1 39.1 1602)">
						<stop  offset="0" style="stop-color:#000000"/>
						<stop  offset="1" style="stop-color:#FFFFFF"/>
					</linearGradient>
					<path id="_Path__12_" class="st1" d="M527,626.7h526.5V677c0.1,3.3-1.3,6.4-3.9,8.3c-6.8,5.7-14.3,10.3-22.4,13.8l0,0l-5.7,2.4
						c-5.7,2-11,4.9-15.8,8.5c-5.8,4.9-3.5,8.4,8,11.6c1.1,0.3,2.2,0.6,1.5,1.2c-1.2,0.5-2.5,0.6-3.7,0.3
						c-12.6-1.1-20.6-5-21.3-10.1c-0.6-4.5,2.6-8.7,7.3-12.7c0.9-0.8,1.8-1.7,2.5-2.6c0.4-0.4,0.7-0.9,1-1.3
						c1.1-1.9,0.2-3.5-2.2-5.2c-0.8-0.6-1.8-0.8-2.7-0.6c-1.4,0-1.6,0.6-1.5,1c0.8,3.5-1.8,6.3-5.9,9c-1.8,1.2-3.7,2.3-5.7,3.3
						c-1,0.6-2.2,0.9-3.3,0.7c-1.9-0.2-1.5-0.8-1.6-1.3l0,0c-1.2-4.3-4.3-7.8-8.3-9.5c-0.9-0.5-1.8-0.9-2.7-1.3
						c-2.1-0.8-4.2-1.2-6.4-1.4c-5.5,1.4-10.8,3.2-16,5.4c-13.1,5.7-13.8,10.6-2.3,16.7c1.1,0.6,2.3,1.1,0.8,1.8
						c-1.7,0.5-3.5,0.5-5.2,0c-15.5-3.5-21.9-9.8-17.2-16.7c4.2-6.1,13.1-11.1,23.7-15.8l1.2-0.6c1.7-0.8,3.5-1.6,5-2.5
						c1-0.5,2-1.1,2.8-1.6c0.3-0.2,0.6-0.5,0.9-0.8c2.6-2.1,3.1-4.3,1.9-6.5c-0.4-0.6-0.9-1.2-3-1.2s-2.7,0.5-3.1,1.1
						c-1.9,2.8-4.6,5.1-7.6,6.6l0,0c-3.2,1.7-6.5,3.1-10,4.3s-7,2.3-11.1,3.5c-1.7,0.7-3.5,0.8-5.2,0.5c-2.3-0.6-1.1-1.3-0.7-2l0,0
						c3.1-4.2,2.9-10-0.6-13.9c-0.6-0.8-1.4-1.5-2.2-2.1c-4.1-2.6-9-3.8-13.8-3.5c-1.8,0-3.6,0.2-5.4,0.5c-2.3,0.4-4.3,1-6.3,1.6
						c-31.3,13.8-37.1,29.1-20,45.8c4.3,3.6,9.3,6.4,14.6,8.3c1.6,0.7,5,1.3,2.5,2.4c-2.4,0.7-5.1,0.6-7.4-0.4
						c-32.3-7.1-57.4-17.1-75.8-29.4c-5.5-3.6-10.6-7.8-15.1-12.7c-2.1,1.7-4.2,3.5-6.1,5.2c-4.3,4.2-7.6,8.8-6.1,13.5
						c0.7,2,0.3,4-4.6,5.8c-16.3-6.7-19.5-15.2-22.6-24.8c-27.2,15.5-61.3,29.3-36,49.7c-29.2-3.1-48.6-12.3-50.9-23.4
						c-1.6-7.7-4-15.4-6.3-23.1c-0.7-2-1.9-3.7-3.5-4.9c-5.1-4.2-12.3-4.7-18-1.3c-8.6,4.1-17,8.3-25,12.6
						c-5.5,2.5-11.6,3.6-17.6,3.3c3.1-3.9,5.9-8,8.3-12.4c3.9-8.8,4.5-17.2-3.1-24.8c-4.3-3.3-9.6-5.1-15-5.3
						c-15.4-1.2-40.9,0-35.9,22c-4.3-1.3-8.2-3.5-11.7-6.3v12.8c0.2,3.4-1.3,6.6-3.9,8.6c-7.5,7.6-22.6,14.3-22.6,14.3l0,0l-5.8,2.5
						c-5.7,2.1-11.1,5.1-16,8.8c-5.8,5.1-3.6,8.6,8,12c1.1,0.3,2.2,0.6,1.6,1.2c-1.1,0.5-2.4,0.6-3.6,0.3
						c-12.7-1.2-20.9-5.1-21.6-10.4c-0.6-4.6,2.7-8.9,7.4-13.2c0.9-0.8,1.7-1.7,2.5-2.7c0.4-0.4,0.7-0.9,1-1.4
						c1.1-1.9,0.2-3.7-2.2-5.4c-0.8-0.6-1.8-0.8-2.7-0.6c-1.4,0-1.6,0.6-1.5,1.1c0.8,3.7-1.8,6.5-5.9,9.3c-1.9,1.2-3.8,2.3-5.7,3.4
						c-1,0.7-2.2,0.9-3.3,0.8c-1.9-0.2-1.5-0.8-1.6-1.4l0,0c-1.2-4.4-4.3-8-8.4-9.8c-0.9-0.5-1.8-0.9-2.7-1.3
						c-2.1-0.8-4.2-1.3-6.4-1.4c-5.5,1.5-10.9,3.3-16.2,5.6c-13.2,5.9-13.9,11-2.3,17.2c1.1,0.6,2.3,1.2,0.8,1.8
						c-1.7,0.5-3.6,0.5-5.3,0c-15.6-3.7-22.2-10.1-17.4-17.2c4.2-6.3,13.2-11.5,23.9-16.3l1.2-0.6c1.8-0.8,3.6-1.7,5.1-2.6
						c1-0.5,2-1.1,2.8-1.6c0.3-0.3,0.6-0.5,0.9-0.8c2.6-2.1,3.2-4.4,1.9-6.7c-0.4-0.6-0.9-1.2-3-1.2s-2.7,0.5-3.1,1.2
						c-2.1,2.9-4.8,5.2-8,6.6l0,0c-3.2,1.8-6.6,3.2-10.1,4.5c-3.6,1.2-7.1,2.4-11.2,3.7c-1.7,0.7-3.5,0.9-5.3,0.5
						c-2.3-0.6-1.1-1.3-0.7-2l0,0c3.2-4.3,2.9-10.3-0.6-14.3c-0.6-0.8-1.4-1.5-2.2-2.2c-4.2-2.7-9-3.9-13.9-3.7
						c-1.8,0-3.6,0.2-5.4,0.5c-2.4,0.4-4.4,1.1-6.4,1.6c-31.6,14.2-37.5,30.1-20.2,47.3c4.4,3.7,9.4,6.6,14.7,8.5
						c1.6,0.7,5.1,1.3,2.5,2.5c-2.5,0.8-5.1,0.6-7.5-0.4c-32.7-7.3-58.1-17.7-76.6-30.4c-5.6-3.7-10.7-8.1-15.3-13.1
						c-2.1,1.7-4.2,3.5-6.1,5.4c-4.3,4.3-7.7,9.1-6.2,13.9c0.7,2.1,0.3,4.2-4.7,6c-16.5-6.9-19.7-15.7-22.9-25.7
						c-27.4,16.1-62,30.3-36.3,51.3c-29.5-3.2-49-12.8-51.4-24.2c-1.6-8-4-15.9-6.4-23.8c-0.7-2-1.9-3.8-3.6-5.1
						c-5.2-4.3-12.5-4.9-18.2-1.4c-8.7,4.2-17.1,8.5-25.3,13c-5.6,2.6-11.7,3.8-17.8,3.4c3.1-4,5.9-8.3,8.3-12.8
						c3.9-9.1,4.5-17.8-3.1-25.7c-4.5-3.3-9.9-5.1-15.4-5.2c-15.6-1.2-41.3,0-36.2,22.7c0,0-15.2-4.3-16.6-15.2l0,0v-31.9H527V626.7
						z"/>
				</g>
			</g>
		</g>
	</g>
	<title>flames</title>
	<g id="_Group_3_1_">
		<g id="_Group_4_1_">
			<path id="_Path_2_1_" class="st2" d="M1056.1,417.5c-8.6,6.9-16.7,14.3-24.3,22.2c-1.9,2.1-3.6,4.3-5.4,6.4l-0.2,0.2
				c-5.5,7.1-22.4,4.6-22.4-3.3c0-1.5,0-2.9,0-4.5c-24.4,17-28.1,33.7-23.8,50.7l0,0c1.6,5.5-5.2,10.6-14.1,10.6h-2.1
				c-2.8-3.9-4.4-8.5-4.6-13.3c1.4-3.5,2.4-7.2,2.9-11c0.3-2.8,0.4-5.6,0.2-8.4l0.7-2.2l-0.8,0.7c-1.1-14.7-8.2-28.4-19.8-41.5
				c-15.4-17.4-36.6-31.4-63.9-41.7c-1.9-0.7-4.1-2.2-6.3-0.5s0.7,2.5,2.1,3.5c4.9,3.1,9,7,12.3,11.7c14.6,23.6,9.5,45.3-16.9,64.8
				c-3,1.8-6.4,2.8-9.8,3c-4.5,0.2-8.8-1.6-11.7-5c-0.7-0.9-1.3-1.9-1.8-3c-1.3-2.8-2.1-5.8-2.2-8.9c0-0.7,0-2.9,0-2.9
				s3.4-2.4,3.5-3.5v-0.4c0.3-1.6,0.8-3.3,1.4-4.8c0.4-1,1.3-2-0.6-2.8c-1.5-0.5-3.1-0.2-4.3,0.7c-11.1,5.3-20.6,11.4-23.7,20.5
				c-0.3,0.9-0.9,1.6-2.5,1.6c-1.1,0.1-2.2-0.6-2.4-1.7c-1-2.8-0.6-6,1-8.5c1.4-1.6,2.8-3.2,4.4-4.7l0,0l0.6-0.5
				c1.2-1.1,2.5-2.1,3.9-3.1c8.7-6.7,16-13.8,19.4-22.4c3.9-9.8-1.4-18.8-14.2-23.7c-1.5-0.6-2.9-1.2-4.3-0.2
				c-1.4,1-0.2,1.7,0.6,2.5c9.5,8.7,8.9,15.6-1.8,23.7c-8,5.5-16.8,9.9-26,13c-5.5,2-10.8,4.4-15.9,7.1
				c-15.6,8.4-25.1,18.1-26.2,26.4h-3.2c-25-3.5-2.8-17.1-7.1-25.3c-4-8.7-10.1-16.2-17.7-22c-8.8-6.5-18.4-11-25.6-17.1
				c-11.5-9.8-23.7-33.2-8.2-45.4c0.9-0.7,2.9-1.5,2-2c-22.8,2.7-31,19-29.1,35.5c2.1,18.5,42.3,39.4,24.8,59.9c0,0-0.8,0.8-2,2.1
				c-2.9-13.7-17.1-31.3-36.1-33.4c5.7,3.9,9.5,8.3,8.2,16.5c-2.4,14.6-19.7,22.2-28.4,32.8c-48.7,23.2-27.3-2.1-27.3-2.1
				c0-1.1,0.6-2.1,1.5-2.7c6.5-4.5,13.6-8.1,21-10.6c5.2-1.7,10.1-4.2,14.5-7.3c7.8-5.7,11.2-12.3,10.2-20.4
				c-11.4,10.8-25.3,18.5-40.5,22.5c0-0.6,0-0.9,0.2-1c0.2-0.2,0.5-0.5,0.8-0.6c23.7-14,30.4-31.9,27.2-51.7c0-0.8,0.8-2.2-2.1-2.1
				s-1.9,1.3-2,2.2c-0.9,12.9-9.6,23.1-27,29.4c-22.2,8.2-36.4,23.1-36.1,40.4c0,3.3-9.1,6.2-9.1,6.2h-0.6c0,0,2.7-31,19.2-44.5
				c0.9-0.7,1.5-1.2,0.6-2.2s-2.1-0.7-3.3-0.4c-23.4,5.7-36.9,16.4-39.5,32.6c-0.6,4.8-0.2,9.6,1.1,14.2c-4,0.4-7.9-1.4-10.2-4.8
				c-0.9-1.9-1.4-3.9-1.6-5.9c-0.1-1.1-0.1-2.2,0-3.3c0-1.1,1.2-2.6-1.4-3s-3.2,1.2-4,2.2c-3.5,4.4-2.8,9-1.3,13.5v1.3
				c0.9,7.6,2.9,44.9-26.9-2.8l-2.2-4.5c-0.6-6.1,0.4-12.2,2.9-17.7c1.8-3.6,2.6-7.7,2.2-11.7c-0.8-7.6-5.7-13.9-15.1-19
				c3.9,11.5,2.5,24.1-3.9,34.4c-0.6-0.5-0.9-0.6-0.9-0.8c-0.1-0.3-0.1-0.6,0-0.9c1.2-20.7-13.5-36.5-37.6-49.1
				c-1-0.5-1.9-1.9-3.8-0.6s0,1.8,1,2.5c13.5,9.5,18.5,20.7,13.2,33.1c-4.5,10.4-3,22.5,3.9,31.5c1.8,2.5-5.2,5.9-5.2,5.9H449
				c0,0-4.9-18.1-11.8-24.1c0-0.6-0.4-1.1-1.5-1.4c-7-5.9-15-10.6-23.6-13.9c9.5,14.2-12.6,34.2-15.5,36.7c-2.1,1.2-4.3,2.1-6.6,2.8
				c-1.1,0.3-2.2,0.5-3.3,0.7c-0.8,0.1-1.5,0.1-2.3,0c-7.1-0.4,0.5-9.9,0.5-9.9c21.7-26.2,9.5-51.6,9.5-51.6
				c-8-18.1-24.8-30.8-44.3-33.6c21,32.2,10.5,52,10.5,52c-2.6,6.3-6.2,12.1-10.6,17.2c-2.1,2.2-4.5,4.1-7.1,5.7l-0.9,0.6
				c-19.8,10.6-40.4-10.3-40.4-10.3c-40-31.9-27.8-10-27.8-10c1,1.1,2,2.3,2.8,3.5l0,0c0,0,33.6,44.9-17.4,86.2
				c0,0,15.1-29.7,12-50.9l-0.9,0.3c-0.3-0.1-0.6,0-0.8,0.2c-1.3,0.4-2.6,0.7-3.9,1c0.8-1.4,1.5-2.8,2.3-4.1l0.2-0.4
				c1-5.1-1.4-10.3-5.9-12.9c0,0,2.3,9.8-13.6,15.2l-0.7,0.2c-0.9-1.1-1.7-2.2-2.6-3.3c-0.2-0.4-0.4-0.8-0.6-1.2l-0.7-0.4l-1-1.2
				c-0.3-0.8-0.9-1.4-1.6-1.8l-2.4-2.7l0,0l0,0c-4.2-4.5-7.6-7.7-8.1-8.2l0,0l0,0c-10.6-22.9-1.1-35.8-1.1-35.8
				c-8.7,3.7-16.1,9.9-21.3,17.7l0,0c-4,5.3-6.2,11.8-6.2,18.5c-0.2,1.9-0.2,3.7,0,5.6c-5.7-2-6.6-4.3-6.3-16.9l0,0l1.5-7.1
				c1.6-4.1,2.8-8.4,1.3-12.8V417c2.7-2.1,2.9-4.3,2.9-6.4c0-0.2,0-0.5,0-0.7c0-0.6,0.6-2,0.6-2s0-2,0-2.5
				c-2.2-18.7-21.3-28.7-30.6-32.4c-1.5-0.8-3-1.4-4.7-1.8l0,0l2.2,7.9c0.5,2.5,0.9,5,1.1,7.6c0,0.7,0-0.9,0-0.1
				c0,2.3-0.1,4.7-0.5,7c0,0.3,0,0.5,0,0.8c0,0.7-0.2,1.5-0.4,2.2c-2.9,12.3-9.3,23.5-18.6,32.2c-1.1,1.1-2.1,2.1-3.2,3
				s-2.5,2.1-3.9,3.2l-0.9,0.7c-2,1.5-3.9,3-6.3,4.5c-0.6-3.4-1.2-6.4-1.8-9.5c0-0.3,0-2.2,0-2.5c-5.2-9.5-14.6-16.6-29.2-20.4
				c0,0,18.3,16.8-3.7,36.1l-1.1,1c-5.1,3.7-9.2,8.5-12.1,14.1c0-0.2,0-1.6,0-1.8v-0.3c0-13.8-14.4-19.5-20.6-21.3
				c-0.9-0.3-1.8-0.6-2.8-0.7l0,0l2,4.1c0.5,1.3,1,2.7,1.4,4c0,0.5,0.3,1,0.4,1.5c1.3,8.5-1.6,17.1-7.7,23.1c-0.3,0-0.5,0.2-0.5,0.5
				c-0.8,0.8-1.6,1.5-2.5,2.2c-0.6-1.5-1.2-2.9-1.7-4.3c0-0.2,0,1.9,0,1.7c-4.7-5.5-11.4-9-18.6-9.8c0,0,9.9,6.9,4.2,16.8
				c-13.7-4.7-23-16.1-29.4-28.6c-2.3-4.6-12.9-3.5-12.9,1.3V624h1057V417.7L1056.1,417.5z"/>
			<path id="_Path_3_1_" class="st3" d="M0.8,486.1c8.3,5.8,16.2,12.1,23.6,18.9c1.9,1.8,3.6,3.5,5.3,5.5h-0.3
				c5.6,6.4,24.3,3,19.5-5.2c1.3-1.3-0.2,0.2,1-1c21.8,13.5,25.1,26.8,21.3,40.4l0,0c-1.4,4.4,4.7,8.4,12.7,8.4H89
				c2.7-3.4,4.3-7.6,4.5-12c-1.3-3.1-2.2-6.3-2.6-9.6c-0.3-2.5-0.4-5-0.2-7.4c-0.2-0.7-0.4-1.3-0.7-1.9l0.8,0.6
				c1-13.2,8-25.7,19.4-37.5c15.1-15.7,35.8-28.4,62.4-37.7c1.8-0.6,3.9-2,6.1-0.4s-0.7,2.2-2,3.1c-4.6,2.7-8.7,6.3-12,10.6
				c-14.2,21.4-9.3,40.9,16.5,58.6c3,1.6,6.3,2.5,9.6,2.7c4.2,0.3,8.4-1.4,11.4-4.5c0.7-0.8,1.3-1.7,1.8-2.7c1.3-2.5,2-5.2,2.2-8.1
				c0-0.6,0-1.2,0-1.7c0-1.1-0.1-2.2-0.3-3.3c0,0,0-0.2,0-0.3c-0.3-1.5-0.8-3-1.4-4.4c-0.4-0.9-1.3-1.8,0.6-2.5
				c1.5-0.4,3-0.2,4.3,0.6c11.1,4.8,20.6,10.3,23.7,18.6c0.3,0.8,0.9,1.5,2.6,1.4c1.7,0,2.1-0.8,2.4-1.5c1-2.7,0.5-5.7-1.3-7.9
				c-1.8-2-3.3-3.4-4.2-4.2l0,0l-0.6-0.5c-1.2-1-2.6-1.9-3.9-2.8c-8.7-6-16.1-12.5-19.5-20.2c-3.9-8.9,1.4-17,14.2-21.4
				c1.4-0.7,2.9-0.7,4.3,0c1.2,0.8,0.2,1.5-0.6,2.2c-9.5,7.8-8.9,14.1,1.8,21.4c8.2,5,17,8.9,26.1,11.5c5.4,1.8,10.7,3.9,15.9,6.3
				c15.7,7.4,25.2,16.3,26.3,26.8h3.2c25.1-6.1,2.8-18.6,7.1-25.8c4.2-8.1,10.3-15,17.8-19.9c8.8-5.9,18.6-10,25.7-15.5
				c11.6-8.9,23.8-30,8.2-40.9c-0.9-0.6-2.9-1.4-2.1-1.8c22.9,2.4,31.1,17.1,29.2,32.1c-2.1,16.7-42.4,35.6-24.9,54.1
				c0,0,0.8,0.7,2,1.9c2.8-12.3,17.2-28.3,36.2-30.2c-5.7,3.7-9.6,7.4-8.2,14.9c2.4,13.2,19.8,20.1,28.4,29.8
				c48.8,20.9,27.4-1.9,27.3-1.9c0-1.1-0.6-2-1.5-2.5c-6.6-4.2-13.7-7.5-21.1-9.8c-5.1-1.5-10-3.7-14.5-6.6
				c-7.8-5.2-11.2-11.2-10.2-18.4c11.8,10,25.7,16.9,40.5,20.3c0-0.6,0,2.4,0,2.4s-0.6-0.4-0.9-0.5c-23.7-12.1-30.4-27.4-27.3-44.6
				c0-0.7-0.7-1.9,2.1-1.8c2.8,0,2,1.1,2,1.9c0.9,11.1,9.6,19.9,27,25.4c22.2,7.1,36.3,19.9,36.1,34.8c0,2.9,4,5.2,9.1,2.7h0.6
				c3.3-11.2-2.8-24-19.2-35.6c-0.9-0.6-1.5-1.1-0.6-1.9s2-0.6,3.3-0.3c23.3,4.9,36.9,14.2,39.5,28.1c0.6,4.1,0.2,8.3-1.1,12.3
				c3.9,0.4,7.7-1.1,10.2-4.1c0.8-1.6,1.4-3.3,1.6-5.1c0.1-0.9,0.1-1.9,0-2.8c0-1-1.2-2.2,1.4-2.6c2.7-0.4,3.2,1,4,1.9
				c3.5,3.8,2.8,7.7,0.8,11.7v1.1c-0.4,6.5-2.3,38.7,27.5-2.4c0.8-1.1,1.7-2.3,2.5-3.5c0.6-5.3-0.4-10.7-2.9-15.4
				c-1.8-3.1-2.6-6.6-2.2-10.1c0.8-6.5,5.7-11.9,15.2-16.4c-3.9,9.9-2.4,21.1,3.9,29.6c0.6-0.4,0.9-0.5,0.9-0.7
				c0.1-0.2,0.1-0.5,0-0.7c-1.3-17.7,13.4-31.3,37.5-42.2c1-0.4,1.9-1.6,3.8-0.5s0,1.6-1,2.1c-13.5,8.2-18.5,17.7-13.2,28.4
				c4.5,8.9,3,19.8-3.9,27.1c-1.8,2.2,5.1,5.8,5.1,5.8h3.5c0,0,5.1-16.7,11.8-21.4c0-0.6,0.4-1,1.5-1.2c7.2-5.2,15.2-9.2,23.6-12
				c-9.5,12.2,12.6,29.5,15.5,31.7c2.1,1,4.3,1.8,6.6,2.4c1.1,0.3,2.2,0.5,3.3,0.6c0.8,0.1,1.5,0.1,2.3,0c7.1-0.3-0.5-8.6-0.5-8.6
				c-21.7-22.5-9.5-44.4-9.5-44.4c9.3-16.2,25.9-27,44.5-29c-21,27.8-10.6,44.8-10.6,44.8c2.6,5.5,6.2,10.5,10.6,14.8
				c2.1,2,4.5,3.6,7.1,4.9l0.8,0.6c19.8,9.1,40.4-8.9,40.4-8.9c40-27.5,27.8-8.7,27.8-8.7c-1,1-2,2-2.8,3.1l0,0
				c0,0-33.6,38.7,17.4,74.3c0,0-15.1-25.6-12-43.8l0.9,0.2c0.3-0.1,0.6,0,0.8,0.2c2.4,0.6,3.9,0.8,3.9,0.8l-2.3-3.5l-0.2-0.4
				c-0.9-4.2,0.8-7.9,5.9-11.1c0,0-2.3,8.4,13.5,13.1l0.7,0.2l2.6-2.8c0.2-0.3,0.4-0.7,0.6-1l0.7-0.3l1-1.1c0.3-0.7,0.9-1.2,1.6-1.6
				l2.5-2.3l0,0c4.2-3.9,7.6-6.7,8.1-7.1l0,0c10.5-19.7,1.2-30.9,1.2-30.9c8.4,3,15.8,8.3,21.3,15.3l0,0c3.9,4.4,6.1,10.1,6,16
				c0.2,1.6,0.2,3.2,0,4.8c5.7-1.7,6.5-3.5,6.3-14.5l0,0c-0.5-2.1-1-4.1-1.5-6.2c-1.6-3.5-2.8-7.2-1.8-11v-0.4
				c-2.2-1.8-2.4-3.7-2.4-5.5c0-0.2,0-0.4,0-0.7c0-0.6,0-1.1,0-1.7c0-0.5,0-1,0.2-1.5c2.3-16.9,22.4-25.9,32.1-29.3
				c1.6-0.7,3.3-1.2,5.1-1.6l0,0l-2.3,7.1c-0.6,2.3-4.2,7.1-4.2,7.1v1.9l3.5,5.5l0,0l0.3,1.8c2.9,10.2,8.9,19.2,17.1,25.8
				c1,0.9,2,1.7,3,2.4c1,0.8,2.3,1.7,3.6,2.6l0.6,0.7c1.9,1.2,3.6,2.4,5.9,3.6c0.6-2.7,1.1-5.2,1.7-7.7c0-0.3,0-0.5,0-0.8
				c5.2-8.2,14.5-14.2,29-17.5c0,0-18.1,14.5,3.6,31c0.3,0.3,0.7,0.6,1.1,0.8c4.9,3,9,7.1,12,12v-1.3c0-13.2,16-18.8,23-20.5
				c1-0.3,2-0.5,3.1-0.7l0,0l-2.2,3.9c-0.5,1.2-1,2.4-1.4,3.7c0,0.5-0.3,1-0.4,1.5c-2.3,10.3,4.3,18.3,8.6,22.2
				c0.4,0,0.6,0.2,0.5,0.5c0.9,0.8,1.8,1.5,2.7,2.2l1.9-4.2l0.2-0.4c5-4.9,11.5-8,18.5-8.5c0,0-9.8,6-4.2,14.6
				c12.6-4.3,23-13.2,29.1-25c2.2-4,12.8-3,12.8,1.1V624H0V486.3L0.8,486.1z"/>
			<path id="_Path_4_1_" class="st4" d="M1057,528.2h-1.9c-8.3,5.9-16.2,12.3-23.7,19.2c-1.9,1.8-3.6,3.6-5.3,5.6l0,0
				c-5.4,6.1-22,4-22-2.9c0.1-1.3,0.1-2.7,0-4c-23.9,14.7-27.5,29.2-23.3,43.9l0,0c1.5,4.7-5.1,9.1-13.8,9.1h-2.2
				c-2.7-3.3-4.2-7.3-4.5-11.5c1.4-3,2.3-6.2,2.8-9.5c0.3-2.4,0.4-4.9,0.2-7.3c0.2-0.6,0.5-1.2,0.7-1.9l-0.8,0.6
				c-1-12.7-8.1-24.6-19.4-36c-15.1-15.1-35.9-27.2-62.6-36.1c-1.9-0.6-4-1.9-6.1-0.5s0.7,2.2,2,3c4.7,2.6,8.9,6.2,12.2,10.4
				c14.3,20.5,9.3,39.2-16.5,56.2c-3,1.6-6.3,2.4-9.6,2.6c-4.2,0.2-8.4-1.3-11.4-4.3c-0.7-0.8-1.3-1.7-1.8-2.6c-1.3-2.4-2-5-2.2-7.7
				c0-0.6,0-3.3,0-3.3s0-2.1,3.5-3.2v-0.3c-3.1-1.4-2.6-2.8-2-4.1c0.4-0.8,1.3-1.7-0.6-2.4c-1.5-0.4-3-0.2-4.3,0.6
				c-11.1,4.5-20.6,9.8-23.7,17.7c-0.3,0.7-0.9,1.4-2.5,1.3s-2.2-0.7-2.4-1.5c-1-2.5-0.6-5.2,1-7.3c1.3-1.4,2.7-2.8,4.2-4.1l0,0
				l0.6-0.5c1.2-0.9,2.5-1.8,3.9-2.7c8.7-5.7,16-11.9,19.4-19.3c3.9-8.5-1.4-16.2-14.2-20.4c-1.4-0.7-2.9-0.7-4.3,0
				c-1.2,0.7-0.2,1.5,0.6,2.1c9.5,7.5,8.9,13.4-1.8,20.4c-8.2,4.8-16.9,8.6-26,11.2c-5.4,1.5-10.6,3.4-15.8,5.5
				c-15.6,7.1-25.1,15.6-26.2,22.8H754c-25-3-2.8-14.9-7.1-21.8c-4.2-7.7-10.3-14.3-17.7-19c-8.8-5.6-18.4-9.5-25.6-14.8
				c-11.5-8.5-23.7-28.6-8.2-39c0.9-0.6,2.9-1.3,2-1.7c-22.8,2.3-31,16.4-29.1,30.6c2.1,16,42.3,33.9,24.8,51.6c0,0-0.8,0.7-2,1.8
				c-2.9-11.8-17.1-27-36.1-28.8c5.7,3.4,9.5,7.1,8.2,14.2c-2.4,12.6-19.7,19.2-28.4,28.4c-48.7,19.9-27.3-1.8-27.3-1.8
				c0-1,0.6-1.9,1.5-2.3c6.6-4.1,13.7-7.3,21.1-9.5c5.1-1.4,10-3.5,14.5-6.3c7.8-4.9,11.2-10.6,10.2-17.6
				c-11.8,9.5-25.7,16.2-40.5,19.4c0-0.5,0-0.7,0.2-0.9s0.5-0.4,0.8-0.6c23.7-12.1,30.4-27.4,27.2-44.5c0-0.7,0.8-1.9-2.1-1.8
				s-1.9,1.1-2,1.9c-0.9,11.1-9.6,19.9-27,25.4c-22.2,7.1-36.4,19.9-36.1,34.8c0,2.9-9.1,5.8-9.1,5.8h-0.6c0,0,2.7-27.2,19.2-38.8
				c0.9-0.6,1.5-1,0.6-1.8s-2.1-0.6-3.3-0.4c-23.4,5-36.9,14.2-39.5,28.1c-0.6,4.1-0.2,8.3,1.1,12.3c-3.9,0.4-7.7-1.1-10.2-4.1
				c-1.3-2.4-1.9-5.2-1.7-8c0-1,1.2-2.2-1.4-2.6c-2.7-0.4-3.2,1-4,1.9c-3.5,3.8-2.8,7.7-1.5,11.6v1.1c1.1,6.5,3.1,38.7-26.7-2.4
				l-2.6-3.5c-0.6-5.3,0.4-10.7,2.9-15.4c1.8-3.1,2.6-6.6,2.2-10.1c-0.8-6.6-5.7-11.9-15.1-16.4c3.9,9.9,2.4,21.1-3.9,29.6
				c-0.6-0.4-0.9-0.5-0.9-0.7c-0.1-0.2-0.1-0.5,0-0.7c1.3-17.7-13.4-31.3-37.5-42.2c-1-0.5-1.9-1.6-3.8-0.5s0,1.6,1,2.1
				c13.5,8.2,18.5,17.7,13.2,28.4c-4.5,9-3,19.8,3.9,27.1c1.8,2.1-5.2,5.4-5.2,5.4H449c0,0-5.1-16.3-11.8-21c0-0.5-0.4-1-1.5-1.2
				c-7.2-5.2-15.2-9.2-23.6-12c9.5,12.2-12.6,29.5-15.5,31.7c-2.1,1-4.3,1.8-6.6,2.4c-1.3,0.3-2.3,0.5-3.3,0.6
				c-0.8,0.1-1.5,0.1-2.3,0c-7.1-0.3,0.5-8.6,0.5-8.6c21.7-22.5,9.5-44.4,9.5-44.4c-9.3-16.2-25.9-27-44.5-29
				c21,27.8,10.5,44.8,10.5,44.8c-2.6,5.5-6.3,10.5-10.6,14.8c-2.1,2-4.5,3.6-7.1,4.9l-0.9,0.6c-19.7,9.3-40.3-8.7-40.3-8.7
				c-40-27.5-27.8-8.7-27.8-8.7c1,1,2,2,2.8,3.1l0,0c0,0,33.6,38.7-17.4,74.3c0,0,15.1-25.6,12-43.8l-0.9,0.2
				c-0.3-0.1-0.6,0-0.8,0.2c-2.4,0.6-3.9,0.8-3.9,0.8l2.3-3.5c0.1-0.1,0.2-0.2,0.2-0.4c0.9-4.2-0.8-7.9-5.9-11.1
				c0,0,2.3,8.4-13.6,13.1l-0.7,0.2l-2.6-2.8c-0.2-0.3-0.4-0.7-0.6-1l-0.7-0.4l-1-1.1c-0.4-0.7-0.9-1.2-1.6-1.6l-2.4-2.3l0,0l0,0
				c-4.2-3.9-7.6-6.6-8.1-7.1l0,0c-10.6-19.7-1.1-30.9-1.1-30.9c-8.4,3-15.8,8.3-21.3,15.3l0,0c-3.9,4.4-6,10.1-6,16
				c-0.2,1.6-0.2,3.2,0,4.8c-5.7-1.7-6.6-3.5-6.3-14.5l0,0l1.5-6.1c1.6-3.5,2.8-7.2,3.5-11l0.3-0.5c0.4-1.8,0.7-3.6,0.7-5.5
				c0-0.2,0-0.4,0-0.7c0-0.6,0-1.1,0.1-1.7v-1.5c-2.3-16.9-22.5-25.9-32.2-29.3c-1.6-0.7-3.4-1.2-5.1-1.6l0,0l2.3,7.1
				c0.6,2.3-0.5,6.9-0.5,6.9v1.9c0,0,1.5,3.7,1.2,5.5c0,0.2,0,0.4,0,0.6c0,0.6-0.2,1.2-0.4,1.7c-2.8,10.1-8.7,19.1-16.9,25.6
				c-1,0.9-2,1.6-2.9,2.4s-2.3,1.7-3.5,2.5l-0.9,0.6c-1.8,1.2-3.5,2.4-5.7,3.5c-0.6-2.7,0.7-7.5,0.7-7.5s0-0.7,0-0.9
				c-5.2-8.2-14.6-14.3-29.2-17.6c0,0,18.3,14.6-3.7,31.1c-0.4,0.3-0.7,0.6-1.1,0.8c-4.9,3-9.1,7.2-12.1,12.1c0,0,0-1,0-1.2v-0.2
				c0-13.2-16-18.7-22.9-20.5c-1-0.3-2-0.5-3.1-0.7l0,0l2.3,3.9c0.6,1.2,1.1,2.5,1.6,3.8c0,0.5,0.3,1,0.4,1.5
				c2.3,10.3-4.3,18.2-8.5,22.1c-0.4,0-0.6,0.2-0.5,0.5c-0.9,0.8-1.8,1.5-2.7,2.2l-1.9-4.2v-0.4c-4.9-4.9-11.4-7.9-18.3-8.5
				c0,0,9.8,6,4.1,14.6c-12.5-4.2-22.9-13.2-29-24.9c-3.1-3.7-13.6-2.8-13.6,1.3V624h1057v-95.8H1057z"/>
		</g>
		<g>
			<g transform="translate(0 -2.76)">
				<g id="_Group_2_15_">
					<g>
						<defs>
							<polygon id="SVGID_1_" points="1,1 2,1 1,2 							"/>
						</defs>
						<defs>
							<polygon id="SVGID_2_" points="-1,-1 -2,-1 -1,-2 							"/>
						</defs>
						<clipPath id="SVGID_3_">
							<use xlink:href="#SVGID_1_"  style="overflow:visible;"/>
						</clipPath>
						<clipPath id="SVGID_4_" class="st5">
							<use xlink:href="#SVGID_2_"  style="overflow:visible;"/>
						</clipPath>
						<g class="st6">
							
								<linearGradient id="_Path__3_" gradientUnits="userSpaceOnUse" x1="-489.1734" y1="-853.862" x2="-487.6126" y2="-975.1658" gradientTransform="matrix(-1 0 0 1 39.1 1602)">
								<stop  offset="0" style="stop-color:#000000"/>
								<stop  offset="1" style="stop-color:#FFFFFF"/>
							</linearGradient>
							<path id="_Path__15_" class="st7" d="M524.5,625.9h530.1v50.3c0.1,3.3-1.3,6.4-3.9,8.3c-6.8,5.7-14.4,10.3-22.6,13.8l0,0
								l-5.7,2.4c-5.7,2-11.1,4.9-15.9,8.5c-5.8,4.9-3.5,8.4,8,11.6c1.1,0.3,2.2,0.6,1.6,1.2c-1.2,0.5-2.5,0.6-3.7,0.3
								c-12.7-1.1-20.8-5-21.5-10.1c-0.6-4.5,2.7-8.7,7.3-12.7c0.9-0.8,1.8-1.7,2.6-2.6c0.4-0.4,0.7-0.9,1-1.3
								c1.1-1.9,0.2-3.5-2.2-5.2c-0.8-0.6-1.8-0.8-2.7-0.6c-1.5,0-1.6,0.6-1.5,1c0.8,3.5-1.8,6.3-6,9c-1.8,1.2-3.7,2.3-5.7,3.3
								c-1,0.6-2.2,0.9-3.3,0.7c-1.9-0.2-1.5-0.8-1.6-1.3l0,0c-1.2-4.3-4.3-7.8-8.4-9.5c-0.9-0.5-1.8-0.9-2.7-1.3
								c-2.1-0.8-4.2-1.2-6.5-1.4c-5.5,1.4-10.9,3.2-16.1,5.4c-13.2,5.7-13.9,10.6-2.3,16.7c1.1,0.6,2.3,1.1,0.8,1.8
								c-1.7,0.5-3.6,0.5-5.3,0c-15.6-3.5-22.1-9.8-17.3-16.7c4.2-6.1,13.2-11.1,23.8-15.8l1.2-0.6c1.7-0.8,3.5-1.6,5.1-2.5
								c1-0.5,2-1.1,2.8-1.6c0.3-0.2,0.6-0.5,0.9-0.8c2.6-2.1,3.2-4.3,1.9-6.5c-0.4-0.6-0.9-1.2-3-1.2s-2.7,0.5-3.1,1.1
								c-1.9,2.8-4.6,5.1-7.7,6.6l0,0c-3.2,1.7-6.6,3.1-10,4.3c-3.5,1.2-7.1,2.3-11.2,3.5c-1.7,0.7-3.5,0.8-5.2,0.5
								c-2.3-0.6-1.1-1.3-0.7-2l0,0c3.1-4.2,2.9-10-0.6-13.9c-0.6-0.8-1.4-1.5-2.2-2.1c-4.2-2.6-9-3.8-13.9-3.5
								c-1.8,0-3.6,0.2-5.4,0.5c-2.3,0.4-4.3,1-6.4,1.6c-31.5,13.8-37.4,29.1-20.1,45.8c4.4,3.6,9.3,6.4,14.7,8.3
								c1.6,0.7,5.1,1.3,2.5,2.4c-2.5,0.7-5.1,0.6-7.5-0.4c-32.6-7.1-57.8-17.1-76.3-29.4c-5.6-3.6-10.7-7.8-15.3-12.7
								c-2.2,1.7-4.3,3.5-6.1,5.2c-4.3,4.2-7.7,8.8-6.1,13.5c0.7,2,0.3,4-4.7,5.8c-16.4-6.7-19.6-15.2-22.8-24.8
								c-27.3,15.5-61.8,29.3-36.2,49.7c-29.4-3.1-48.9-12.3-51.2-23.4c-1.6-7.7-4-15.4-6.4-23.1c-0.7-2-1.9-3.7-3.5-4.9
								c-5.2-4.2-12.4-4.7-18.1-1.3c-8.7,4.1-17.1,8.3-25.1,12.6c-5.6,2.5-11.6,3.6-17.7,3.3c3.1-3.9,5.9-8,8.3-12.4
								c3.9-8.8,4.5-17.2-3.1-24.8c-4.4-3.3-9.6-5.1-15.1-5.3c-15.5-1.2-41.2,0-36.1,22c-4.3-1.3-8.3-3.5-11.7-6.3v11.2
								c0.2,3.3-1.3,6.4-3.9,8.3c-7.4,7.3-22.5,13.8-22.5,13.8l0,0l-5.7,2.4c-5.7,2-11.1,4.9-15.9,8.5c-5.8,4.9-3.5,8.4,8,11.6
								c1.1,0.3,2.2,0.6,1.6,1.2c-1.1,0.5-2.4,0.6-3.5,0.3c-12.7-1.1-20.8-5-21.5-10.1c-0.6-4.5,2.7-8.7,7.3-12.7
								c0.9-0.8,1.7-1.7,2.5-2.6c0.4-0.4,0.7-0.9,1-1.3c1.1-1.9,0.2-3.5-2.2-5.2c-0.8-0.6-1.8-0.8-2.7-0.6c-1.4,0-1.6,0.6-1.5,1
								c0.8,3.5-1.8,6.3-5.9,9c-1.8,1.2-3.8,2.3-5.7,3.3c-1,0.6-2.2,0.9-3.3,0.7c-1.9-0.2-1.5-0.8-1.6-1.3l0,0
								c-1.2-4.3-4.3-7.8-8.3-9.5c-0.9-0.5-1.8-0.9-2.7-1.3c-2.1-0.8-4.2-1.2-6.4-1.4c-5.5,1.4-10.9,3.2-16.1,5.4
								c-13.2,5.7-13.9,10.6-2.3,16.7c1.1,0.6,2.3,1.1,0.8,1.8c-1.7,0.5-3.6,0.5-5.3,0c-15.6-3.5-22.1-9.8-17.3-16.7
								c4.2-6.1,13.2-11.1,23.8-15.8l1.2-0.6c1.8-0.8,3.5-1.6,5.1-2.5c1-0.5,2-1.1,2.8-1.6c0.3-0.2,0.6-0.5,0.9-0.8
								c2.6-2.1,3.2-4.3,1.9-6.5c-0.4-0.6-0.9-1.2-3-1.2s-2.7,0.5-3.1,1.1c-2.1,2.8-4.8,5-8,6.4l0,0c-3.2,1.7-6.6,3.1-10,4.3
								c-3.5,1.2-7.1,2.3-11.2,3.5c-1.7,0.7-3.5,0.8-5.2,0.5c-2.3-0.6-1.1-1.3-0.7-2l0,0c3.1-4.2,2.9-10-0.6-13.9
								c-0.6-0.8-1.4-1.5-2.2-2.1c-4.2-2.6-9-3.8-13.9-3.5c-1.8,0-3.6,0.2-5.4,0.5c-2.4,0.4-4.4,1-6.4,1.6
								c-32,14.2-37.8,29.5-20.6,46.2c4.4,3.6,9.4,6.4,14.7,8.3c1.6,0.7,5.1,1.3,2.5,2.4c-2.5,0.7-5.1,0.6-7.5-0.4
								c-32.6-7.1-57.9-17.1-76.3-29.4c-5.6-3.6-10.7-7.8-15.3-12.7c-2.1,1.6-4.1,3.4-6.1,5.2c-4.3,4.2-7.7,8.8-6.1,13.5
								c0.7,2,0.3,4-4.7,5.8c-16.4-6.7-19.6-15.2-22.8-24.8c-27.3,15.5-61.8,29.3-36.2,49.7c-29.4-3.1-48.9-12.3-51.2-23.4
								c-1.6-7.7-4-15.4-6.3-23.1c-0.7-2-1.9-3.7-3.5-4.9c-5.2-4.2-12.4-4.7-18.2-1.3c-8.7,4.1-17,8.3-25.2,12.6
								c-5.6,2.5-11.6,3.6-17.7,3.3c3.1-3.9,5.9-8,8.3-12.4c3.9-8.8,4.5-17.2-3.1-24.8c-4.5-3.2-9.9-5-15.4-5
								c-15.5-1.2-41.2,0-36.1,22c0,0-15.1-4.2-16.6-14.7l0,0V626L524.5,625.9L524.5,625.9z"/>
						</g>
					</g>
				</g>
			</g>
		</g>
		<g>
			
				<linearGradient id="_Path_5_3_" gradientUnits="userSpaceOnUse" x1="-488.9193" y1="-853.0712" x2="-487.3584" y2="-974.3818" gradientTransform="matrix(-1 0 0 1 39.1 1599.24)">
				<stop  offset="0" style="stop-color:#FFFFFF"/>
				<stop  offset="1" style="stop-color:#F19E1F"/>
			</linearGradient>
			<path id="_Path_5_1_" class="st8" d="M527,624h526.5v50.3c0.1,3.3-1.3,6.4-3.9,8.3c-6.8,5.7-14.3,10.3-22.4,13.8l0,0l-5.7,2.4
				c-5.7,2-11,4.9-15.8,8.5c-5.8,4.9-3.5,8.4,8,11.6c1.1,0.3,2.2,0.6,1.5,1.2c-1.2,0.5-2.5,0.6-3.7,0.3c-12.6-1.1-20.6-5-21.3-10.1
				c-0.6-4.5,2.6-8.7,7.3-12.7c0.9-0.8,1.8-1.7,2.5-2.6c0.4-0.4,0.7-0.9,1-1.3c1.1-1.9,0.2-3.5-2.2-5.2c-0.8-0.6-1.8-0.8-2.7-0.6
				c-1.4,0-1.6,0.6-1.5,1c0.8,3.5-1.8,6.3-5.9,9c-1.8,1.2-3.7,2.3-5.7,3.3c-1,0.6-2.2,0.9-3.3,0.7c-1.9-0.2-1.5-0.8-1.6-1.3l0,0
				c-1.2-4.3-4.3-7.8-8.3-9.5c-0.9-0.5-1.8-0.9-2.7-1.3c-2.1-0.8-4.2-1.2-6.4-1.4c-5.5,1.4-10.8,3.2-16,5.4
				c-13.1,5.7-13.8,10.6-2.3,16.7c1.1,0.6,2.3,1.1,0.8,1.8c-1.7,0.5-3.5,0.5-5.2,0c-15.5-3.5-21.9-9.8-17.2-16.7
				c4.2-6.1,13.1-11.1,23.7-15.8l1.2-0.6c1.7-0.8,3.5-1.6,5-2.5c1-0.5,2-1.1,2.8-1.6c0.3-0.2,0.6-0.5,0.9-0.8
				c2.6-2.1,3.1-4.3,1.9-6.5c-0.4-0.6-0.9-1.2-3-1.2s-2.7,0.5-3.1,1.1c-1.9,2.8-4.6,5.1-7.6,6.6l0,0c-3.2,1.7-6.5,3.1-10,4.3
				s-7,2.3-11.1,3.5c-1.7,0.7-3.5,0.8-5.2,0.5c-2.3-0.6-1.1-1.3-0.7-2l0,0c3.1-4.2,2.9-10-0.6-13.9c-0.6-0.8-1.4-1.5-2.2-2.1
				c-4.1-2.6-9-3.8-13.8-3.5c-1.8,0-3.6,0.2-5.4,0.5c-2.3,0.4-4.3,1-6.3,1.6c-31.3,13.8-37.1,29.1-20,45.8c4.3,3.6,9.3,6.4,14.6,8.3
				c1.6,0.7,5,1.3,2.5,2.4c-2.4,0.7-5.1,0.6-7.4-0.4c-32.3-7.1-57.4-17.1-75.8-29.4c-5.5-3.6-10.6-7.8-15.1-12.7
				c-2.1,1.7-4.2,3.5-6.1,5.2c-4.3,4.2-7.6,8.8-6.1,13.5c0.7,2,0.3,4-4.6,5.8c-16.3-6.7-19.5-15.2-22.6-24.8
				c-27.2,15.5-61.3,29.3-36,49.7c-29.2-3.1-48.6-12.3-50.9-23.4c-1.6-7.7-4-15.4-6.3-23.1c-0.7-2-1.9-3.7-3.5-4.9
				c-5.1-4.2-12.3-4.7-18-1.3c-8.6,4.1-17,8.3-25,12.6c-5.5,2.5-11.6,3.6-17.6,3.3c3.1-3.9,5.9-8,8.3-12.4
				c3.9-8.8,4.5-17.2-3.1-24.8c-4.3-3.3-9.6-5.1-15-5.3c-15.4-1.2-40.9,0-35.9,22c-4.3-1.3-8.2-3.5-11.7-6.3v12.8
				c0.2,3.4-1.3,6.6-3.9,8.6c-7.5,7.6-22.6,14.3-22.6,14.3l0,0l-5.8,2.5c-5.7,2.1-11.1,5.1-16,8.8c-5.8,5.1-3.6,8.6,8,12
				c1.1,0.3,2.2,0.6,1.6,1.2c-1.1,0.5-2.4,0.6-3.6,0.3c-12.7-1.2-20.9-5.1-21.6-10.4c-0.6-4.6,2.7-8.9,7.4-13.2
				c0.9-0.8,1.7-1.7,2.5-2.7c0.4-0.4,0.7-0.9,1-1.4c1.1-1.9,0.2-3.7-2.2-5.4c-0.8-0.6-1.8-0.8-2.7-0.6c-1.4,0-1.6,0.6-1.5,1.1
				c0.8,3.7-1.8,6.5-5.9,9.3c-1.9,1.2-3.8,2.3-5.7,3.4c-1,0.7-2.2,0.9-3.3,0.8c-1.9-0.2-1.5-0.8-1.6-1.4l0,0c-1.2-4.4-4.3-8-8.4-9.8
				c-0.9-0.5-1.8-0.9-2.7-1.3c-2.1-0.8-4.2-1.3-6.4-1.4c-5.5,1.5-10.9,3.3-16.2,5.6c-13.2,5.9-13.9,11-2.3,17.2
				c1.1,0.6,2.3,1.2,0.8,1.8c-1.7,0.5-3.6,0.5-5.3,0c-15.6-3.7-22.2-10.1-17.4-17.2c4.2-6.3,13.2-11.5,23.9-16.3l1.2-0.6
				c1.8-0.8,3.6-1.7,5.1-2.6c1-0.5,2-1.1,2.8-1.6c0.3-0.3,0.6-0.5,0.9-0.8c2.6-2.1,3.2-4.4,1.9-6.7c-0.4-0.6-0.9-1.2-3-1.2
				s-2.7,0.5-3.1,1.2c-2.1,2.9-4.8,5.2-8,6.6l0,0c-3.2,1.8-6.6,3.2-10.1,4.5c-3.6,1.2-7.1,2.4-11.2,3.7c-1.7,0.7-3.5,0.9-5.3,0.5
				c-2.3-0.6-1.1-1.3-0.7-2l0,0c3.2-4.3,2.9-10.3-0.6-14.3c-0.6-0.8-1.4-1.5-2.2-2.2c-4.2-2.7-9-3.9-13.9-3.7
				c-1.8,0-3.6,0.2-5.4,0.5c-2.4,0.4-4.4,1.1-6.4,1.6c-31.6,14.2-37.5,30.1-20.2,47.3c4.4,3.7,9.4,6.6,14.7,8.5
				c1.6,0.7,5.1,1.3,2.5,2.5c-2.5,0.8-5.1,0.6-7.5-0.4c-32.7-7.3-58.1-17.7-76.6-30.4c-5.6-3.7-10.7-8.1-15.3-13.1
				c-2.1,1.7-4.2,3.5-6.1,5.4c-4.3,4.3-7.7,9.1-6.2,13.9c0.7,2.1,0.3,4.2-4.7,6c-16.5-6.9-19.7-15.7-22.9-25.7
				c-27.4,16.1-62,30.3-36.3,51.3c-29.5-3.2-49-12.8-51.4-24.2c-1.6-8-4-15.9-6.4-23.8c-0.7-2-1.9-3.8-3.6-5.1
				c-5.2-4.3-12.5-4.9-18.2-1.4c-8.7,4.2-17.1,8.5-25.3,13c-5.6,2.6-11.7,3.8-17.8,3.4c3.1-4,5.9-8.3,8.3-12.8
				c3.9-9.1,4.5-17.8-3.1-25.7c-4.5-3.3-9.9-5.1-15.4-5.2c-15.6-1.2-41.3,0-36.2,22.7c0,0-15.2-4.3-16.6-15.2l0,0V624H527z"/>
		</g>
	</g>
</g>
<g>
	<g>
		<g transform="translate(0 -2.76)">
			<g id="_Group_2_6_">
				<g>
					
						<linearGradient id="_Path__4_" gradientUnits="userSpaceOnUse" x1="-1541.9207" y1="-854.0713" x2="-1540.3596" y2="-975.3818" gradientTransform="matrix(-1 0 0 1 39.1 1602)">
						<stop  offset="0" style="stop-color:#000000"/>
						<stop  offset="1" style="stop-color:#FFFFFF"/>
					</linearGradient>
					<path id="_Path__6_" class="st9" d="M1580,625.7h526.5V676c0.1,3.3-1.3,6.4-3.9,8.3c-6.8,5.7-14.3,10.3-22.4,13.8l0,0l-5.7,2.4
						c-5.7,2-11,4.9-15.8,8.5c-5.8,4.9-3.5,8.4,8,11.6c1.1,0.3,2.2,0.6,1.5,1.2c-1.2,0.5-2.5,0.6-3.7,0.3
						c-12.6-1.1-20.6-5-21.3-10.1c-0.6-4.5,2.6-8.7,7.3-12.7c0.9-0.8,1.8-1.7,2.5-2.6c0.4-0.4,0.7-0.9,1-1.3
						c1.1-1.9,0.2-3.5-2.2-5.2c-0.8-0.6-1.8-0.8-2.7-0.6c-1.4,0-1.6,0.6-1.5,1c0.8,3.5-1.8,6.3-5.9,9c-1.8,1.2-3.7,2.3-5.7,3.3
						c-1,0.6-2.2,0.9-3.3,0.7c-1.9-0.2-1.5-0.8-1.6-1.3l0,0c-1.2-4.3-4.3-7.8-8.3-9.5c-0.9-0.5-1.8-0.9-2.7-1.3
						c-2.1-0.8-4.2-1.2-6.4-1.4c-5.5,1.4-10.8,3.2-16,5.4c-13.1,5.7-13.8,10.6-2.3,16.7c1.1,0.6,2.3,1.1,0.8,1.8
						c-1.7,0.5-3.5,0.5-5.2,0c-15.5-3.5-21.9-9.8-17.2-16.7c4.2-6.1,13.1-11.1,23.7-15.8l1.2-0.6c1.7-0.8,3.5-1.6,5-2.5
						c1-0.5,2-1.1,2.8-1.6c0.3-0.2,0.6-0.5,0.9-0.8c2.6-2.1,3.1-4.3,1.9-6.5c-0.4-0.6-0.9-1.2-3-1.2s-2.7,0.5-3.1,1.1
						c-1.9,2.8-4.6,5.1-7.6,6.6l0,0c-3.2,1.7-6.5,3.1-10,4.3s-7,2.3-11.1,3.5c-1.7,0.7-3.5,0.8-5.2,0.5c-2.3-0.6-1.1-1.3-0.7-2l0,0
						c3.1-4.2,2.9-10-0.6-13.9c-0.6-0.8-1.4-1.5-2.2-2.1c-4.1-2.6-9-3.8-13.8-3.5c-1.8,0-3.6,0.2-5.4,0.5c-2.3,0.4-4.3,1-6.3,1.6
						c-31.3,13.8-37.1,29.1-20,45.8c4.3,3.6,9.3,6.4,14.6,8.3c1.6,0.7,5,1.3,2.5,2.4c-2.4,0.7-5.1,0.6-7.4-0.4
						c-32.3-7.1-57.4-17.1-75.8-29.4c-5.5-3.6-10.6-7.8-15.1-12.7c-2.1,1.7-4.2,3.5-6.1,5.2c-4.3,4.2-7.6,8.8-6.1,13.5
						c0.7,2,0.3,4-4.6,5.8c-16.3-6.7-19.5-15.2-22.6-24.8c-27.2,15.5-61.3,29.3-36,49.7c-29.2-3.1-48.6-12.3-50.9-23.4
						c-1.6-7.7-4-15.4-6.3-23.1c-0.7-2-1.9-3.7-3.5-4.9c-5.1-4.2-12.3-4.7-18-1.3c-8.6,4.1-17,8.3-25,12.6
						c-5.5,2.5-11.6,3.6-17.6,3.3c3.1-3.9,5.9-8,8.3-12.4c3.9-8.8,4.5-17.2-3.1-24.8c-4.3-3.3-9.6-5.1-15-5.3
						c-15.4-1.2-40.9,0-35.9,22c-4.3-1.3-8.2-3.5-11.7-6.3v12.8c0.2,3.4-1.3,6.6-3.9,8.6c-7.5,7.6-22.6,14.3-22.6,14.3l0,0l-5.8,2.5
						c-5.7,2.1-11.1,5.1-16,8.8c-5.8,5.1-3.6,8.6,8,12c1.1,0.3,2.2,0.6,1.6,1.2c-1.1,0.5-2.4,0.6-3.6,0.3
						c-12.7-1.2-20.9-5.1-21.6-10.4c-0.6-4.6,2.7-8.9,7.4-13.2c0.9-0.8,1.7-1.7,2.5-2.7c0.4-0.4,0.7-0.9,1-1.4
						c1.1-1.9,0.2-3.7-2.2-5.4c-0.8-0.6-1.8-0.8-2.7-0.6c-1.4,0-1.6,0.6-1.5,1.1c0.8,3.7-1.8,6.5-5.9,9.3c-1.9,1.2-3.8,2.3-5.7,3.4
						c-1,0.7-2.2,0.9-3.3,0.8c-1.9-0.2-1.5-0.8-1.6-1.4l0,0c-1.2-4.4-4.3-8-8.4-9.8c-0.9-0.5-1.8-0.9-2.7-1.3
						c-2.1-0.8-4.2-1.3-6.4-1.4c-5.5,1.5-10.9,3.3-16.2,5.6c-13.2,5.9-13.9,11-2.3,17.2c1.1,0.6,2.3,1.2,0.8,1.8
						c-1.7,0.5-3.6,0.5-5.3,0c-15.6-3.7-22.2-10.1-17.4-17.2c4.2-6.3,13.2-11.5,23.9-16.3l1.2-0.6c1.8-0.8,3.6-1.7,5.1-2.6
						c1-0.5,2-1.1,2.8-1.6c0.3-0.3,0.6-0.5,0.9-0.8c2.6-2.1,3.2-4.4,1.9-6.7c-0.4-0.6-0.9-1.2-3-1.2s-2.7,0.5-3.1,1.2
						c-2.1,2.9-4.8,5.2-8,6.6l0,0c-3.2,1.8-6.6,3.2-10.1,4.5c-3.6,1.2-7.1,2.4-11.2,3.7c-1.7,0.7-3.5,0.9-5.3,0.5
						c-2.3-0.6-1.1-1.3-0.7-2l0,0c3.2-4.3,2.9-10.3-0.6-14.3c-0.6-0.8-1.4-1.5-2.2-2.2c-4.2-2.7-9-3.9-13.9-3.7
						c-1.8,0-3.6,0.2-5.4,0.5c-2.4,0.4-4.4,1.1-6.4,1.6c-31.6,14.2-37.5,30.1-20.2,47.3c4.4,3.7,9.4,6.6,14.7,8.5
						c1.6,0.7,5.1,1.3,2.5,2.5c-2.5,0.8-5.1,0.6-7.5-0.4c-32.7-7.3-58.1-17.7-76.6-30.4c-5.6-3.7-10.7-8.1-15.3-13.1
						c-2.1,1.7-4.2,3.5-6.1,5.4c-4.3,4.3-7.7,9.1-6.2,13.9c0.7,2.1,0.3,4.2-4.7,6c-16.5-6.9-19.7-15.7-22.9-25.7
						c-27.4,16.1-62,30.3-36.3,51.3c-29.5-3.2-49-12.8-51.4-24.2c-1.6-8-4-15.9-6.4-23.8c-0.7-2-1.9-3.8-3.6-5.1
						c-5.2-4.3-12.5-4.9-18.2-1.4c-8.7,4.2-17.1,8.5-25.3,13c-5.6,2.6-11.7,3.8-17.8,3.4c3.1-4,5.9-8.3,8.3-12.8
						c3.9-9.1,4.5-17.8-3.1-25.7c-4.5-3.3-9.9-5.1-15.4-5.2c-15.6-1.2-41.3,0-36.2,22.7c0,0-15.2-4.3-16.6-15.2l0,0v-31.9H1580
						V625.7z"/>
				</g>
			</g>
		</g>
	</g>
	<title>flames</title>
	<g id="_Group_3_2_">
		<g id="_Group_4_2_">
			<path id="_Path_2_2_" class="st2" d="M2109.1,416.5c-8.6,6.9-16.7,14.3-24.3,22.2c-1.9,2.1-3.6,4.3-5.4,6.4l-0.2,0.2
				c-5.5,7.1-22.4,4.6-22.4-3.3c0-1.5,0-2.9,0-4.5c-24.4,17-28.1,33.7-23.8,50.7l0,0c1.6,5.5-5.2,10.6-14.1,10.6h-2.1
				c-2.8-3.9-4.4-8.5-4.6-13.3c1.4-3.5,2.4-7.2,2.9-11c0.3-2.8,0.4-5.6,0.2-8.4l0.7-2.2l-0.8,0.7c-1.1-14.7-8.2-28.4-19.8-41.5
				c-15.4-17.4-36.6-31.4-63.9-41.7c-1.9-0.7-4.1-2.2-6.3-0.5s0.7,2.5,2.1,3.5c4.9,3.1,9,7,12.3,11.7c14.6,23.6,9.5,45.3-16.9,64.8
				c-3,1.8-6.4,2.8-9.8,3c-4.5,0.2-8.8-1.6-11.7-5c-0.7-0.9-1.3-1.9-1.8-3c-1.3-2.8-2.1-5.8-2.2-8.9c0-0.7,0-2.9,0-2.9
				s3.4-2.4,3.5-3.5v-0.4c0.3-1.6,0.8-3.3,1.4-4.8c0.4-1,1.3-2-0.6-2.8c-1.5-0.5-3.1-0.2-4.3,0.7c-11.1,5.3-20.6,11.4-23.7,20.5
				c-0.3,0.9-0.9,1.6-2.5,1.6c-1.1,0.1-2.2-0.6-2.4-1.7c-1-2.8-0.6-6,1-8.5c1.4-1.6,2.8-3.2,4.4-4.7l0,0l0.6-0.5
				c1.2-1.1,2.5-2.1,3.9-3.1c8.7-6.7,16-13.8,19.4-22.4c3.9-9.8-1.4-18.8-14.2-23.7c-1.5-0.6-2.9-1.2-4.3-0.2s-0.2,1.7,0.6,2.5
				c9.5,8.7,8.9,15.6-1.8,23.7c-8,5.5-16.8,9.9-26,13c-5.5,2-10.8,4.4-15.9,7.1c-15.6,8.4-25.1,18.1-26.2,26.4h-3.2
				c-25-3.5-2.8-17.1-7.1-25.3c-4-8.7-10.1-16.2-17.7-22c-8.8-6.5-18.4-11-25.6-17.1c-11.5-9.8-23.7-33.2-8.2-45.4
				c0.9-0.7,2.9-1.5,2-2c-22.8,2.7-31,19-29.1,35.5c2.1,18.5,42.3,39.4,24.8,59.9c0,0-0.8,0.8-2,2.1c-2.9-13.7-17.1-31.3-36.1-33.4
				c5.7,3.9,9.5,8.3,8.2,16.5c-2.4,14.6-19.7,22.2-28.4,32.8c-48.7,23.2-27.3-2.1-27.3-2.1c0-1.1,0.6-2.1,1.5-2.7
				c6.5-4.5,13.6-8.1,21-10.6c5.2-1.7,10.1-4.2,14.5-7.3c7.8-5.7,11.2-12.3,10.2-20.4c-11.4,10.8-25.3,18.5-40.5,22.5
				c0-0.6,0-0.9,0.2-1c0.2-0.2,0.5-0.5,0.8-0.6c23.7-14,30.4-31.9,27.2-51.7c0-0.8,0.8-2.2-2.1-2.1s-1.9,1.3-2,2.2
				c-0.9,12.9-9.6,23.1-27,29.4c-22.2,8.2-36.4,23.1-36.1,40.4c0,3.3-9.1,6.2-9.1,6.2h-0.6c0,0,2.7-31,19.2-44.5
				c0.9-0.7,1.5-1.2,0.6-2.2c-0.9-0.9-2.1-0.7-3.3-0.4c-23.4,5.7-36.9,16.4-39.5,32.6c-0.6,4.8-0.2,9.6,1.1,14.2
				c-4,0.4-7.9-1.4-10.2-4.8c-0.9-1.9-1.4-3.9-1.6-5.9c-0.1-1.1-0.1-2.2,0-3.3c0-1.1,1.2-2.6-1.4-3s-3.2,1.2-4,2.2
				c-3.5,4.4-2.8,9-1.3,13.5v1.3c0.9,7.6,2.9,44.9-26.9-2.8l-2.2-4.5c-0.6-6.1,0.4-12.2,2.9-17.7c1.8-3.6,2.6-7.7,2.2-11.7
				c-0.8-7.6-5.7-13.9-15.1-19c3.9,11.5,2.5,24.1-3.9,34.4c-0.6-0.5-0.9-0.6-0.9-0.8c-0.1-0.3-0.1-0.6,0-0.9
				c1.2-20.7-13.5-36.5-37.6-49.1c-1-0.5-1.9-1.9-3.8-0.6s0,1.8,1,2.5c13.5,9.5,18.5,20.7,13.2,33.1c-4.5,10.4-3,22.5,3.9,31.5
				c1.8,2.5-5.2,5.9-5.2,5.9h-3.5c0,0-4.9-18.1-11.8-24.1c0-0.6-0.4-1.1-1.5-1.4c-7-5.9-15-10.6-23.6-13.9
				c9.5,14.2-12.6,34.2-15.5,36.7c-2.1,1.2-4.3,2.1-6.6,2.8c-1.1,0.3-2.2,0.5-3.3,0.7c-0.8,0.1-1.5,0.1-2.3,0
				c-7.1-0.4,0.5-9.9,0.5-9.9c21.7-26.2,9.5-51.6,9.5-51.6c-8-18.1-24.8-30.8-44.3-33.6c21,32.2,10.5,52,10.5,52
				c-2.6,6.3-6.2,12.1-10.6,17.2c-2.1,2.2-4.5,4.1-7.1,5.7l-0.9,0.6c-19.8,10.6-40.4-10.3-40.4-10.3c-40-31.9-27.8-10-27.8-10
				c1,1.1,2,2.3,2.8,3.5l0,0c0,0,33.6,44.9-17.4,86.2c0,0,15.1-29.7,12-50.9l-0.9,0.3c-0.3-0.1-0.6,0-0.8,0.2
				c-1.3,0.4-2.6,0.7-3.9,1c0.8-1.4,1.5-2.8,2.3-4.1l0.2-0.4c1-5.1-1.4-10.3-5.9-12.9c0,0,2.3,9.8-13.6,15.2l-0.7,0.2
				c-0.9-1.1-1.7-2.2-2.6-3.3c-0.2-0.4-0.4-0.8-0.6-1.2l-0.7-0.4l-1-1.2c-0.3-0.8-0.9-1.4-1.6-1.8l-2.4-2.7l0,0l0,0
				c-4.2-4.5-7.6-7.7-8.1-8.2l0,0l0,0c-10.6-22.9-1.1-35.8-1.1-35.8c-8.7,3.7-16.1,9.9-21.3,17.7l0,0c-4,5.3-6.2,11.8-6.2,18.5
				c-0.2,1.9-0.2,3.7,0,5.6c-5.7-2-6.6-4.3-6.3-16.9l0,0l1.5-7.1c1.6-4.1,2.8-8.4,1.3-12.8V416c2.7-2.1,2.9-4.3,2.9-6.4
				c0-0.2,0-0.5,0-0.7c0-0.6,0.6-2,0.6-2s0-2,0-2.5c-2.2-18.7-21.3-28.7-30.6-32.4c-1.5-0.8-3-1.4-4.7-1.8l0,0l2.2,7.9
				c0.5,2.5,0.9,5,1.1,7.6c0,0.7,0-0.9,0-0.1c0,2.3-0.1,4.7-0.5,7c0,0.3,0,0.5,0,0.8c0,0.7-0.2,1.5-0.4,2.2
				c-2.9,12.3-9.3,23.5-18.6,32.2c-1.1,1.1-2.1,2.1-3.2,3s-2.5,2.1-3.9,3.2l-0.9,0.7c-2,1.5-3.9,3-6.3,4.5c-0.6-3.4-1.2-6.4-1.8-9.5
				c0-0.3,0-2.2,0-2.5c-5.2-9.5-14.6-16.6-29.2-20.4c0,0,18.3,16.8-3.7,36.1l-1.1,1c-5.1,3.7-9.2,8.5-12.1,14.1c0-0.2,0-1.6,0-1.8
				v-0.3c0-13.8-14.4-19.5-20.6-21.3c-0.9-0.3-1.8-0.6-2.8-0.7l0,0l2,4.1c0.5,1.3,1,2.7,1.4,4c0,0.5,0.3,1,0.4,1.5
				c1.3,8.5-1.6,17.1-7.7,23.1c-0.3,0-0.5,0.2-0.5,0.5c-0.8,0.8-1.6,1.5-2.5,2.2c-0.6-1.5-1.2-2.9-1.7-4.3c0-0.2,0,1.9,0,1.7
				c-4.7-5.5-11.4-9-18.6-9.8c0,0,9.9,6.9,4.2,16.8c-13.7-4.7-23-16.1-29.4-28.6c-2.3-4.6-12.9-3.5-12.9,1.3V623h1057V416.7
				L2109.1,416.5z"/>
			<path id="_Path_3_2_" class="st3" d="M1053.8,485.1c8.3,5.8,16.2,12.1,23.6,18.9c1.9,1.8,3.6,3.5,5.3,5.5h-0.3
				c5.6,6.4,24.3,3,19.5-5.2c1.3-1.3-0.2,0.2,1-1c21.8,13.5,25.1,26.8,21.3,40.4l0,0c-1.4,4.4,4.7,8.4,12.7,8.4h5.1
				c2.7-3.4,4.3-7.6,4.5-12c-1.3-3.1-2.2-6.3-2.6-9.6c-0.3-2.5-0.4-5-0.2-7.4c-0.2-0.7-0.4-1.3-0.7-1.9l0.8,0.6
				c1-13.2,8-25.7,19.4-37.5c15.1-15.7,35.8-28.4,62.4-37.7c1.8-0.6,3.9-2,6.1-0.4c2.2,1.5-0.7,2.2-2,3.1c-4.6,2.7-8.7,6.3-12,10.6
				c-14.2,21.4-9.3,40.9,16.5,58.6c3,1.6,6.3,2.5,9.6,2.7c4.2,0.3,8.4-1.4,11.4-4.5c0.7-0.8,1.3-1.7,1.8-2.7c1.3-2.5,2-5.2,2.2-8.1
				c0-0.6,0-1.2,0-1.7c0-1.1-0.1-2.2-0.3-3.3c0,0,0-0.2,0-0.3c-0.3-1.5-0.8-3-1.4-4.4c-0.4-0.9-1.3-1.8,0.6-2.5
				c1.5-0.4,3-0.2,4.3,0.6c11.1,4.8,20.6,10.3,23.7,18.6c0.3,0.8,0.9,1.5,2.6,1.4c1.7,0,2.1-0.8,2.4-1.5c1-2.7,0.5-5.7-1.3-7.9
				c-1.8-2-3.3-3.4-4.2-4.2l0,0l-0.6-0.5c-1.2-1-2.6-1.9-3.9-2.8c-8.7-6-16.1-12.5-19.5-20.2c-3.9-8.9,1.4-17,14.2-21.4
				c1.4-0.7,2.9-0.7,4.3,0c1.2,0.8,0.2,1.5-0.6,2.2c-9.5,7.8-8.9,14.1,1.8,21.4c8.2,5,17,8.9,26.1,11.5c5.4,1.8,10.7,3.9,15.9,6.3
				c15.7,7.4,25.2,16.3,26.3,26.8h3.2c25.1-6.1,2.8-18.6,7.1-25.8c4.2-8.1,10.3-15,17.8-19.9c8.8-5.9,18.6-10,25.7-15.5
				c11.6-8.9,23.8-30,8.2-40.9c-0.9-0.6-2.9-1.4-2.1-1.8c22.9,2.4,31.1,17.1,29.2,32.1c-2.1,16.7-42.4,35.6-24.9,54.1
				c0,0,0.8,0.7,2,1.9c2.8-12.3,17.2-28.3,36.2-30.2c-5.7,3.7-9.6,7.4-8.2,14.9c2.4,13.2,19.8,20.1,28.4,29.8
				c48.8,20.9,27.4-1.9,27.3-1.9c0-1.1-0.6-2-1.5-2.5c-6.6-4.2-13.7-7.5-21.1-9.8c-5.1-1.5-10-3.7-14.5-6.6
				c-7.8-5.2-11.2-11.2-10.2-18.4c11.8,10,25.7,16.9,40.5,20.3c0-0.6,0,2.4,0,2.4s-0.6-0.4-0.9-0.5c-23.7-12.1-30.4-27.4-27.3-44.6
				c0-0.7-0.7-1.9,2.1-1.8c2.8,0,2,1.1,2,1.9c0.9,11.1,9.6,19.9,27,25.4c22.2,7.1,36.3,19.9,36.1,34.8c0,2.9,4,5.2,9.1,2.7h0.6
				c3.3-11.2-2.8-24-19.2-35.6c-0.9-0.6-1.5-1.1-0.6-1.9s2-0.6,3.3-0.3c23.3,4.9,36.9,14.2,39.5,28.1c0.6,4.1,0.2,8.3-1.1,12.3
				c3.9,0.4,7.7-1.1,10.2-4.1c0.8-1.6,1.4-3.3,1.6-5.1c0.1-0.9,0.1-1.9,0-2.8c0-1-1.2-2.2,1.4-2.6c2.7-0.4,3.2,1,4,1.9
				c3.5,3.8,2.8,7.7,0.8,11.7v1.1c-0.4,6.5-2.3,38.7,27.5-2.4c0.8-1.1,1.7-2.3,2.5-3.5c0.6-5.3-0.4-10.7-2.9-15.4
				c-1.8-3.1-2.6-6.6-2.2-10.1c0.8-6.5,5.7-11.9,15.2-16.4c-3.9,9.9-2.4,21.1,3.9,29.6c0.6-0.4,0.9-0.5,0.9-0.7
				c0.1-0.2,0.1-0.5,0-0.7c-1.3-17.7,13.4-31.3,37.5-42.2c1-0.4,1.9-1.6,3.8-0.5s0,1.6-1,2.1c-13.5,8.2-18.5,17.7-13.2,28.4
				c4.5,8.9,3,19.8-3.9,27.1c-1.8,2.2,5.1,5.8,5.1,5.8h3.5c0,0,5.1-16.7,11.8-21.4c0-0.6,0.4-1,1.5-1.2c7.2-5.2,15.2-9.2,23.6-12
				c-9.5,12.2,12.6,29.5,15.5,31.7c2.1,1,4.3,1.8,6.6,2.4c1.1,0.3,2.2,0.5,3.3,0.6c0.8,0.1,1.5,0.1,2.3,0c7.1-0.3-0.5-8.6-0.5-8.6
				c-21.7-22.5-9.5-44.4-9.5-44.4c9.3-16.2,25.9-27,44.5-29c-21,27.8-10.6,44.8-10.6,44.8c2.6,5.5,6.2,10.5,10.6,14.8
				c2.1,2,4.5,3.6,7.1,4.9l0.8,0.6c19.8,9.1,40.4-8.9,40.4-8.9c40-27.5,27.8-8.7,27.8-8.7c-1,1-2,2-2.8,3.1l0,0
				c0,0-33.6,38.7,17.4,74.3c0,0-15.1-25.6-12-43.8l0.9,0.2c0.3-0.1,0.6,0,0.8,0.2c2.4,0.6,3.9,0.8,3.9,0.8l-2.3-3.5l-0.2-0.4
				c-0.9-4.2,0.8-7.9,5.9-11.1c0,0-2.3,8.4,13.5,13.1l0.7,0.2l2.6-2.8c0.2-0.3,0.4-0.7,0.6-1l0.7-0.3l1-1.1c0.3-0.7,0.9-1.2,1.6-1.6
				l2.5-2.3l0,0c4.2-3.9,7.6-6.7,8.1-7.1l0,0c10.5-19.7,1.2-30.9,1.2-30.9c8.4,3,15.8,8.3,21.3,15.3l0,0c3.9,4.4,6.1,10.1,6,16
				c0.2,1.6,0.2,3.2,0,4.8c5.7-1.7,6.5-3.5,6.3-14.5l0,0c-0.5-2.1-1-4.1-1.5-6.2c-1.6-3.5-2.8-7.2-1.8-11v-0.4
				c-2.2-1.8-2.4-3.7-2.4-5.5c0-0.2,0-0.4,0-0.7c0-0.6,0-1.1,0-1.7c0-0.5,0-1,0.2-1.5c2.3-16.9,22.4-25.9,32.1-29.3
				c1.6-0.7,3.3-1.2,5.1-1.6l0,0l-2.3,7.1c-0.6,2.3-4.2,7.1-4.2,7.1v1.9l3.5,5.5l0,0l0.3,1.8c2.9,10.2,8.9,19.2,17.1,25.8
				c1,0.9,2,1.7,3,2.4c1,0.8,2.3,1.7,3.6,2.6l0.6,0.7c1.9,1.2,3.6,2.4,5.9,3.6c0.6-2.7,1.1-5.2,1.7-7.7c0-0.3,0-0.5,0-0.8
				c5.2-8.2,14.5-14.2,29-17.5c0,0-18.1,14.5,3.6,31c0.3,0.3,0.7,0.6,1.1,0.8c4.9,3,9,7.1,12,12v-1.3c0-13.2,16-18.8,23-20.5
				c1-0.3,2-0.5,3.1-0.7l0,0l-2.2,3.9c-0.5,1.2-1,2.4-1.4,3.7c0,0.5-0.3,1-0.4,1.5c-2.3,10.3,4.3,18.3,8.6,22.2
				c0.4,0,0.6,0.2,0.5,0.5c0.9,0.8,1.8,1.5,2.7,2.2l1.9-4.2l0.2-0.4c5-4.9,11.5-8,18.5-8.5c0,0-9.8,6-4.2,14.6
				c12.6-4.3,23-13.2,29.1-25c2.2-4,12.8-3,12.8,1.1V623H1053V485.3L1053.8,485.1z"/>
			<path id="_Path_4_2_" class="st4" d="M2110,527.2h-1.9c-8.3,5.9-16.2,12.3-23.7,19.2c-1.9,1.8-3.6,3.6-5.3,5.6l0,0
				c-5.4,6.1-22,4-22-2.9c0.1-1.3,0.1-2.7,0-4c-23.9,14.7-27.5,29.2-23.3,43.9l0,0c1.5,4.7-5.1,9.1-13.8,9.1h-2.2
				c-2.7-3.3-4.2-7.3-4.5-11.5c1.4-3,2.3-6.2,2.8-9.5c0.3-2.4,0.4-4.9,0.2-7.3c0.2-0.6,0.5-1.2,0.7-1.9l-0.8,0.6
				c-1-12.7-8.1-24.6-19.4-36c-15.1-15.1-35.9-27.2-62.6-36.1c-1.9-0.6-4-1.9-6.1-0.5c-2.1,1.5,0.7,2.2,2,3
				c4.7,2.6,8.9,6.2,12.2,10.4c14.3,20.5,9.3,39.2-16.5,56.2c-3,1.6-6.3,2.4-9.6,2.6c-4.2,0.2-8.4-1.3-11.4-4.3
				c-0.7-0.8-1.3-1.7-1.8-2.6c-1.3-2.4-2-5-2.2-7.7c0-0.6,0-3.3,0-3.3s0-2.1,3.5-3.2v-0.3c-3.1-1.4-2.6-2.8-2-4.1
				c0.4-0.8,1.3-1.7-0.6-2.4c-1.5-0.4-3-0.2-4.3,0.6c-11.1,4.5-20.6,9.8-23.7,17.7c-0.3,0.7-0.9,1.4-2.5,1.3c-1.7,0-2.2-0.7-2.4-1.5
				c-1-2.5-0.6-5.2,1-7.3c1.3-1.4,2.7-2.8,4.2-4.1l0,0l0.6-0.5c1.2-0.9,2.5-1.8,3.9-2.7c8.7-5.7,16-11.9,19.4-19.3
				c3.9-8.5-1.4-16.2-14.2-20.4c-1.4-0.7-2.9-0.7-4.3,0c-1.2,0.7-0.2,1.5,0.6,2.1c9.5,7.5,8.9,13.4-1.8,20.4
				c-8.2,4.8-16.9,8.6-26,11.2c-5.4,1.5-10.6,3.4-15.8,5.5c-15.6,7.1-25.1,15.6-26.2,22.8h-3.2c-25-3-2.8-14.9-7.1-21.8
				c-4.2-7.7-10.3-14.3-17.7-19c-8.8-5.6-18.4-9.5-25.6-14.8c-11.5-8.5-23.7-28.6-8.2-39c0.9-0.6,2.9-1.3,2-1.7
				c-22.8,2.3-31,16.4-29.1,30.6c2.1,16,42.3,33.9,24.8,51.6c0,0-0.8,0.7-2,1.8c-2.9-11.8-17.1-27-36.1-28.8
				c5.7,3.4,9.5,7.1,8.2,14.2c-2.4,12.6-19.7,19.2-28.4,28.4c-48.7,19.9-27.3-1.8-27.3-1.8c0-1,0.6-1.9,1.5-2.3
				c6.6-4.1,13.7-7.3,21.1-9.5c5.1-1.4,10-3.5,14.5-6.3c7.8-4.9,11.2-10.6,10.2-17.6c-11.8,9.5-25.7,16.2-40.5,19.4
				c0-0.5,0-0.7,0.2-0.9s0.5-0.4,0.8-0.6c23.7-12.1,30.4-27.4,27.2-44.5c0-0.7,0.8-1.9-2.1-1.8s-1.9,1.1-2,1.9
				c-0.9,11.1-9.6,19.9-27,25.4c-22.2,7.1-36.4,19.9-36.1,34.8c0,2.9-9.1,5.8-9.1,5.8h-0.6c0,0,2.7-27.2,19.2-38.8
				c0.9-0.6,1.5-1,0.6-1.8s-2.1-0.6-3.3-0.4c-23.4,5-36.9,14.2-39.5,28.1c-0.6,4.1-0.2,8.3,1.1,12.3c-3.9,0.4-7.7-1.1-10.2-4.1
				c-1.3-2.4-1.9-5.2-1.7-8c0-1,1.2-2.2-1.4-2.6c-2.7-0.4-3.2,1-4,1.9c-3.5,3.8-2.8,7.7-1.5,11.6v1.1c1.1,6.5,3.1,38.7-26.7-2.4
				l-2.6-3.5c-0.6-5.3,0.4-10.7,2.9-15.4c1.8-3.1,2.6-6.6,2.2-10.1c-0.8-6.6-5.7-11.9-15.1-16.4c3.9,9.9,2.4,21.1-3.9,29.6
				c-0.6-0.4-0.9-0.5-0.9-0.7c-0.1-0.2-0.1-0.5,0-0.7c1.3-17.7-13.4-31.3-37.5-42.2c-1-0.5-1.9-1.6-3.8-0.5s0,1.6,1,2.1
				c13.5,8.2,18.5,17.7,13.2,28.4c-4.5,9-3,19.8,3.9,27.1c1.8,2.1-5.2,5.4-5.2,5.4h-3.5c0,0-5.1-16.3-11.8-21c0-0.5-0.4-1-1.5-1.2
				c-7.2-5.2-15.2-9.2-23.6-12c9.5,12.2-12.6,29.5-15.5,31.7c-2.1,1-4.3,1.8-6.6,2.4c-1.3,0.3-2.3,0.5-3.3,0.6
				c-0.8,0.1-1.5,0.1-2.3,0c-7.1-0.3,0.5-8.6,0.5-8.6c21.7-22.5,9.5-44.4,9.5-44.4c-9.3-16.2-25.9-27-44.5-29
				c21,27.8,10.5,44.8,10.5,44.8c-2.6,5.5-6.3,10.5-10.6,14.8c-2.1,2-4.5,3.6-7.1,4.9l-0.9,0.6c-19.7,9.3-40.3-8.7-40.3-8.7
				c-40-27.5-27.8-8.7-27.8-8.7c1,1,2,2,2.8,3.1l0,0c0,0,33.6,38.7-17.4,74.3c0,0,15.1-25.6,12-43.8l-0.9,0.2
				c-0.3-0.1-0.6,0-0.8,0.2c-2.4,0.6-3.9,0.8-3.9,0.8l2.3-3.5c0.1-0.1,0.2-0.2,0.2-0.4c0.9-4.2-0.8-7.9-5.9-11.1
				c0,0,2.3,8.4-13.6,13.1l-0.7,0.2l-2.6-2.8c-0.2-0.3-0.4-0.7-0.6-1l-0.7-0.4l-1-1.1c-0.4-0.7-0.9-1.2-1.6-1.6l-2.4-2.3l0,0l0,0
				c-4.2-3.9-7.6-6.6-8.1-7.1l0,0c-10.6-19.7-1.1-30.9-1.1-30.9c-8.4,3-15.8,8.3-21.3,15.3l0,0c-3.9,4.4-6,10.1-6,16
				c-0.2,1.6-0.2,3.2,0,4.8c-5.7-1.7-6.6-3.5-6.3-14.5l0,0l1.5-6.1c1.6-3.5,2.8-7.2,3.5-11l0.3-0.5c0.4-1.8,0.7-3.6,0.7-5.5
				c0-0.2,0-0.4,0-0.7c0-0.6,0-1.1,0.1-1.7v-1.5c-2.3-16.9-22.5-25.9-32.2-29.3c-1.6-0.7-3.4-1.2-5.1-1.6l0,0l2.3,7.1
				c0.6,2.3-0.5,6.9-0.5,6.9v1.9c0,0,1.5,3.7,1.2,5.5c0,0.2,0,0.4,0,0.6c0,0.6-0.2,1.2-0.4,1.7c-2.8,10.1-8.7,19.1-16.9,25.6
				c-1,0.9-2,1.6-2.9,2.4s-2.3,1.7-3.5,2.5l-0.9,0.6c-1.8,1.2-3.5,2.4-5.7,3.5c-0.6-2.7,0.7-7.5,0.7-7.5s0-0.7,0-0.9
				c-5.2-8.2-14.6-14.3-29.2-17.6c0,0,18.3,14.6-3.7,31.1c-0.4,0.3-0.7,0.6-1.1,0.8c-4.9,3-9.1,7.2-12.1,12.1c0,0,0-1,0-1.2v-0.2
				c0-13.2-16-18.7-22.9-20.5c-1-0.3-2-0.5-3.1-0.7l0,0l2.3,3.9c0.6,1.2,1.1,2.5,1.6,3.8c0,0.5,0.3,1,0.4,1.5
				c2.3,10.3-4.3,18.2-8.5,22.1c-0.4,0-0.6,0.2-0.5,0.5c-0.9,0.8-1.8,1.5-2.7,2.2l-1.9-4.2v-0.4c-4.9-4.9-11.4-7.9-18.3-8.5
				c0,0,9.8,6,4.1,14.6c-12.5-4.2-22.9-13.2-29-24.9c-3.1-3.7-13.6-2.8-13.6,1.3V623h1057V527.2z"/>
		</g>
		<g>
			<g transform="translate(0 -2.76)">
				<g id="_Group_2_2_">
					<g>
						<defs>
							<polygon id="SVGID_5_" points="1,1 2,1 1,2 							"/>
						</defs>
						<defs>
							<polygon id="SVGID_6_" points="-1,-1 -2,-1 -1,-2 							"/>
						</defs>
						<clipPath id="SVGID_7_">
							<use xlink:href="#SVGID_5_"  style="overflow:visible;"/>
						</clipPath>
						<clipPath id="SVGID_8_" class="st10">
							<use xlink:href="#SVGID_6_"  style="overflow:visible;"/>
						</clipPath>
						<g class="st11">
							
								<linearGradient id="_Path__5_" gradientUnits="userSpaceOnUse" x1="-1542.427" y1="-854.8653" x2="-1540.866" y2="-976.1691" gradientTransform="matrix(-1 0 0 1 39.1 1602)">
								<stop  offset="0" style="stop-color:#000000"/>
								<stop  offset="1" style="stop-color:#FFFFFF"/>
							</linearGradient>
							<path id="_Path__2_" class="st12" d="M1577.5,624.9h530.1v50.3c0.1,3.3-1.3,6.4-3.9,8.3c-6.8,5.7-14.4,10.3-22.6,13.8l0,0
								l-5.7,2.4c-5.7,2-11.1,4.9-15.9,8.5c-5.8,4.9-3.5,8.4,8,11.6c1.1,0.3,2.2,0.6,1.6,1.2c-1.2,0.5-2.5,0.6-3.7,0.3
								c-12.7-1.1-20.8-5-21.5-10.1c-0.6-4.5,2.7-8.7,7.3-12.7c0.9-0.8,1.8-1.7,2.6-2.6c0.4-0.4,0.7-0.9,1-1.3
								c1.1-1.9,0.2-3.5-2.2-5.2c-0.8-0.6-1.8-0.8-2.7-0.6c-1.5,0-1.6,0.6-1.5,1c0.8,3.5-1.8,6.3-6,9c-1.8,1.2-3.7,2.3-5.7,3.3
								c-1,0.6-2.2,0.9-3.3,0.7c-1.9-0.2-1.5-0.8-1.6-1.3l0,0c-1.2-4.3-4.3-7.8-8.4-9.5c-0.9-0.5-1.8-0.9-2.7-1.3
								c-2.1-0.8-4.2-1.2-6.5-1.4c-5.5,1.4-10.9,3.2-16.1,5.4c-13.2,5.7-13.9,10.6-2.3,16.7c1.1,0.6,2.3,1.1,0.8,1.8
								c-1.7,0.5-3.6,0.5-5.3,0c-15.6-3.5-22.1-9.8-17.3-16.7c4.2-6.1,13.2-11.1,23.8-15.8l1.2-0.6c1.7-0.8,3.5-1.6,5.1-2.5
								c1-0.5,2-1.1,2.8-1.6c0.3-0.2,0.6-0.5,0.9-0.8c2.6-2.1,3.2-4.3,1.9-6.5c-0.4-0.6-0.9-1.2-3-1.2s-2.7,0.5-3.1,1.1
								c-1.9,2.8-4.6,5.1-7.7,6.6l0,0c-3.2,1.7-6.6,3.1-10,4.3c-3.5,1.2-7.1,2.3-11.2,3.5c-1.7,0.7-3.5,0.8-5.2,0.5
								c-2.3-0.6-1.1-1.3-0.7-2l0,0c3.1-4.2,2.9-10-0.6-13.9c-0.6-0.8-1.4-1.5-2.2-2.1c-4.2-2.6-9-3.8-13.9-3.5
								c-1.8,0-3.6,0.2-5.4,0.5c-2.3,0.4-4.3,1-6.4,1.6c-31.5,13.8-37.4,29.1-20.1,45.8c4.4,3.6,9.3,6.4,14.7,8.3
								c1.6,0.7,5.1,1.3,2.5,2.4c-2.5,0.7-5.1,0.6-7.5-0.4c-32.6-7.1-57.8-17.1-76.3-29.4c-5.6-3.6-10.7-7.8-15.3-12.7
								c-2.2,1.7-4.3,3.5-6.1,5.2c-4.3,4.2-7.7,8.8-6.1,13.5c0.7,2,0.3,4-4.7,5.8c-16.4-6.7-19.6-15.2-22.8-24.8
								c-27.3,15.5-61.8,29.3-36.2,49.7c-29.4-3.1-48.9-12.3-51.2-23.4c-1.6-7.7-4-15.4-6.4-23.1c-0.7-2-1.9-3.7-3.5-4.9
								c-5.2-4.2-12.4-4.7-18.1-1.3c-8.7,4.1-17.1,8.3-25.1,12.6c-5.6,2.5-11.6,3.6-17.7,3.3c3.1-3.9,5.9-8,8.3-12.4
								c3.9-8.8,4.5-17.2-3.1-24.8c-4.4-3.3-9.6-5.1-15.1-5.3c-15.5-1.2-41.2,0-36.1,22c-4.3-1.3-8.3-3.5-11.7-6.3v11.2
								c0.2,3.3-1.3,6.4-3.9,8.3c-7.4,7.3-22.5,13.8-22.5,13.8l0,0l-5.7,2.4c-5.7,2-11.1,4.9-15.9,8.5c-5.8,4.9-3.5,8.4,8,11.6
								c1.1,0.3,2.2,0.6,1.6,1.2c-1.1,0.5-2.4,0.6-3.5,0.3c-12.7-1.1-20.8-5-21.5-10.1c-0.6-4.5,2.7-8.7,7.3-12.7
								c0.9-0.8,1.7-1.7,2.5-2.6c0.4-0.4,0.7-0.9,1-1.3c1.1-1.9,0.2-3.5-2.2-5.2c-0.8-0.6-1.8-0.8-2.7-0.6c-1.4,0-1.6,0.6-1.5,1
								c0.8,3.5-1.8,6.3-5.9,9c-1.8,1.2-3.8,2.3-5.7,3.3c-1,0.6-2.2,0.9-3.3,0.7c-1.9-0.2-1.5-0.8-1.6-1.3l0,0
								c-1.2-4.3-4.3-7.8-8.3-9.5c-0.9-0.5-1.8-0.9-2.7-1.3c-2.1-0.8-4.2-1.2-6.4-1.4c-5.5,1.4-10.9,3.2-16.1,5.4
								c-13.2,5.7-13.9,10.6-2.3,16.7c1.1,0.6,2.3,1.1,0.8,1.8c-1.7,0.5-3.6,0.5-5.3,0c-15.6-3.5-22.1-9.8-17.3-16.7
								c4.2-6.1,13.2-11.1,23.8-15.8l1.2-0.6c1.8-0.8,3.5-1.6,5.1-2.5c1-0.5,2-1.1,2.8-1.6c0.3-0.2,0.6-0.5,0.9-0.8
								c2.6-2.1,3.2-4.3,1.9-6.5c-0.4-0.6-0.9-1.2-3-1.2s-2.7,0.5-3.1,1.1c-2.1,2.8-4.8,5-8,6.4l0,0c-3.2,1.7-6.6,3.1-10,4.3
								c-3.5,1.2-7.1,2.3-11.2,3.5c-1.7,0.7-3.5,0.8-5.2,0.5c-2.3-0.6-1.1-1.3-0.7-2l0,0c3.1-4.2,2.9-10-0.6-13.9
								c-0.6-0.8-1.4-1.5-2.2-2.1c-4.2-2.6-9-3.8-13.9-3.5c-1.8,0-3.6,0.2-5.4,0.5c-2.4,0.4-4.4,1-6.4,1.6
								c-31.5,13.8-37.3,29.1-20.1,45.8c4.4,3.6,9.4,6.4,14.7,8.3c1.6,0.7,5.1,1.3,2.5,2.4c-2.5,0.7-5.1,0.6-7.5-0.4
								c-32.6-7.1-57.9-17.1-76.3-29.4c-5.6-3.6-10.7-7.8-15.3-12.7c-2.1,1.6-4.1,3.4-6.1,5.2c-4.3,4.2-7.7,8.8-6.1,13.5
								c0.7,2,0.3,4-4.7,5.8c-16.4-6.7-19.6-15.2-22.8-24.8c-27.3,15.5-61.8,29.3-36.2,49.7c-29.4-3.1-48.9-12.3-51.2-23.4
								c-1.6-7.7-4-15.4-6.3-23.1c-0.7-2-1.9-3.7-3.5-4.9c-5.2-4.2-12.4-4.7-18.2-1.3c-8.7,4.1-17,8.3-25.2,12.6
								c-5.6,2.5-11.6,3.6-17.7,3.3c3.1-3.9,5.9-8,8.3-12.4c3.9-8.8,4.5-17.2-3.1-24.8c-4.5-3.2-9.9-5-15.4-5
								c-15.5-1.2-41.2,0-36.1,22c0,0-15.1-4.2-16.6-14.7l0,0v-30.9h524.8V624.9z"/>
						</g>
					</g>
				</g>
			</g>
		</g>
		<g>
			
				<linearGradient id="_Path_5_4_" gradientUnits="userSpaceOnUse" x1="-1541.9199" y1="-854.0712" x2="-1540.3589" y2="-975.3818" gradientTransform="matrix(-1 0 0 1 39.1 1599.24)">
				<stop  offset="0" style="stop-color:#FFFFFF"/>
				<stop  offset="1" style="stop-color:#F19E1F"/>
			</linearGradient>
			<path id="_Path_5_2_" class="st13" d="M1580,623h526.5v50.3c0.1,3.3-1.3,6.4-3.9,8.3c-6.8,5.7-14.3,10.3-22.4,13.8l0,0l-5.7,2.4
				c-5.7,2-11,4.9-15.8,8.5c-5.8,4.9-3.5,8.4,8,11.6c1.1,0.3,2.2,0.6,1.5,1.2c-1.2,0.5-2.5,0.6-3.7,0.3c-12.6-1.1-20.6-5-21.3-10.1
				c-0.6-4.5,2.6-8.7,7.3-12.7c0.9-0.8,1.8-1.7,2.5-2.6c0.4-0.4,0.7-0.9,1-1.3c1.1-1.9,0.2-3.5-2.2-5.2c-0.8-0.6-1.8-0.8-2.7-0.6
				c-1.4,0-1.6,0.6-1.5,1c0.8,3.5-1.8,6.3-5.9,9c-1.8,1.2-3.7,2.3-5.7,3.3c-1,0.6-2.2,0.9-3.3,0.7c-1.9-0.2-1.5-0.8-1.6-1.3l0,0
				c-1.2-4.3-4.3-7.8-8.3-9.5c-0.9-0.5-1.8-0.9-2.7-1.3c-2.1-0.8-4.2-1.2-6.4-1.4c-5.5,1.4-10.8,3.2-16,5.4
				c-13.1,5.7-13.8,10.6-2.3,16.7c1.1,0.6,2.3,1.1,0.8,1.8c-1.7,0.5-3.5,0.5-5.2,0c-15.5-3.5-21.9-9.8-17.2-16.7
				c4.2-6.1,13.1-11.1,23.7-15.8l1.2-0.6c1.7-0.8,3.5-1.6,5-2.5c1-0.5,2-1.1,2.8-1.6c0.3-0.2,0.6-0.5,0.9-0.8
				c2.6-2.1,3.1-4.3,1.9-6.5c-0.4-0.6-0.9-1.2-3-1.2s-2.7,0.5-3.1,1.1c-1.9,2.8-4.6,5.1-7.6,6.6l0,0c-3.2,1.7-6.5,3.1-10,4.3
				s-7,2.3-11.1,3.5c-1.7,0.7-3.5,0.8-5.2,0.5c-2.3-0.6-1.1-1.3-0.7-2l0,0c3.1-4.2,2.9-10-0.6-13.9c-0.6-0.8-1.4-1.5-2.2-2.1
				c-4.1-2.6-9-3.8-13.8-3.5c-1.8,0-3.6,0.2-5.4,0.5c-2.3,0.4-4.3,1-6.3,1.6c-31.3,13.8-37.1,29.1-20,45.8c4.3,3.6,9.3,6.4,14.6,8.3
				c1.6,0.7,5,1.3,2.5,2.4c-2.4,0.7-5.1,0.6-7.4-0.4c-32.3-7.1-57.4-17.1-75.8-29.4c-5.5-3.6-10.6-7.8-15.1-12.7
				c-2.1,1.7-4.2,3.5-6.1,5.2c-4.3,4.2-7.6,8.8-6.1,13.5c0.7,2,0.3,4-4.6,5.8c-16.3-6.7-19.5-15.2-22.6-24.8
				c-27.2,15.5-61.3,29.3-36,49.7c-29.2-3.1-48.6-12.3-50.9-23.4c-1.6-7.7-4-15.4-6.3-23.1c-0.7-2-1.9-3.7-3.5-4.9
				c-5.1-4.2-12.3-4.7-18-1.3c-8.6,4.1-17,8.3-25,12.6c-5.5,2.5-11.6,3.6-17.6,3.3c3.1-3.9,5.9-8,8.3-12.4
				c3.9-8.8,4.5-17.2-3.1-24.8c-4.3-3.3-9.6-5.1-15-5.3c-15.4-1.2-40.9,0-35.9,22c-4.3-1.3-8.2-3.5-11.7-6.3v12.8
				c0.2,3.4-1.3,6.6-3.9,8.6c-7.5,7.6-22.6,14.3-22.6,14.3l0,0l-5.8,2.5c-5.7,2.1-11.1,5.1-16,8.8c-5.8,5.1-3.6,8.6,8,12
				c1.1,0.3,2.2,0.6,1.6,1.2c-1.1,0.5-2.4,0.6-3.6,0.3c-12.7-1.2-20.9-5.1-21.6-10.4c-0.6-4.6,2.7-8.9,7.4-13.2
				c0.9-0.8,1.7-1.7,2.5-2.7c0.4-0.4,0.7-0.9,1-1.4c1.1-1.9,0.2-3.7-2.2-5.4c-0.8-0.6-1.8-0.8-2.7-0.6c-1.4,0-1.6,0.6-1.5,1.1
				c0.8,3.7-1.8,6.5-5.9,9.3c-1.9,1.2-3.8,2.3-5.7,3.4c-1,0.7-2.2,0.9-3.3,0.8c-1.9-0.2-1.5-0.8-1.6-1.4l0,0c-1.2-4.4-4.3-8-8.4-9.8
				c-0.9-0.5-1.8-0.9-2.7-1.3c-2.1-0.8-4.2-1.3-6.4-1.4c-5.5,1.5-10.9,3.3-16.2,5.6c-13.2,5.9-13.9,11-2.3,17.2
				c1.1,0.6,2.3,1.2,0.8,1.8c-1.7,0.5-3.6,0.5-5.3,0c-15.6-3.7-22.2-10.1-17.4-17.2c4.2-6.3,13.2-11.5,23.9-16.3l1.2-0.6
				c1.8-0.8,3.6-1.7,5.1-2.6c1-0.5,2-1.1,2.8-1.6c0.3-0.3,0.6-0.5,0.9-0.8c2.6-2.1,3.2-4.4,1.9-6.7c-0.4-0.6-0.9-1.2-3-1.2
				s-2.7,0.5-3.1,1.2c-2.1,2.9-4.8,5.2-8,6.6l0,0c-3.2,1.8-6.6,3.2-10.1,4.5c-3.6,1.2-7.1,2.4-11.2,3.7c-1.7,0.7-3.5,0.9-5.3,0.5
				c-2.3-0.6-1.1-1.3-0.7-2l0,0c3.2-4.3,2.9-10.3-0.6-14.3c-0.6-0.8-1.4-1.5-2.2-2.2c-4.2-2.7-9-3.9-13.9-3.7
				c-1.8,0-3.6,0.2-5.4,0.5c-2.4,0.4-4.4,1.1-6.4,1.6c-31.6,14.2-37.5,30.1-20.2,47.3c4.4,3.7,9.4,6.6,14.7,8.5
				c1.6,0.7,5.1,1.3,2.5,2.5c-2.5,0.8-5.1,0.6-7.5-0.4c-32.7-7.3-58.1-17.7-76.6-30.4c-5.6-3.7-10.7-8.1-15.3-13.1
				c-2.1,1.7-4.2,3.5-6.1,5.4c-4.3,4.3-7.7,9.1-6.2,13.9c0.7,2.1,0.3,4.2-4.7,6c-16.5-6.9-19.7-15.7-22.9-25.7
				c-27.4,16.1-62,30.3-36.3,51.3c-29.5-3.2-49-12.8-51.4-24.2c-1.6-8-4-15.9-6.4-23.8c-0.7-2-1.9-3.8-3.6-5.1
				c-5.2-4.3-12.5-4.9-18.2-1.4c-8.7,4.2-17.1,8.5-25.3,13c-5.6,2.6-11.7,3.8-17.8,3.4c3.1-4,5.9-8.3,8.3-12.8
				c3.9-9.1,4.5-17.8-3.1-25.7c-4.5-3.3-9.9-5.1-15.4-5.2c-15.6-1.2-41.3,0-36.2,22.7c0,0-15.2-4.3-16.6-15.2l0,0V623H1580z"/>
		</g>
	</g>
</g>
</svg>
